<svg width="46" height="30" fill="none" xmlns="http://www.w3.org/2000/svg"><path d="M43.125 12.5H2.875A2.375 2.375 0 0 0 .5 14.875v.25A2.375 2.375 0 0 0 2.875 17.5h40.25a2.375 2.375 0 0 0 2.375-2.375v-.25a2.375 2.375 0 0 0-2.375-2.375ZM43.125 25H2.875A2.375 2.375 0 0 0 .5 27.375v.25A2.375 2.375 0 0 0 2.875 30h40.25a2.375 2.375 0 0 0 2.375-2.375v-.25A2.375 2.375 0 0 0 43.125 25ZM43.125 0H2.875A2.375 2.375 0 0 0 .5 2.375v.25A2.375 2.375 0 0 0 2.875 5h40.25A2.375 2.375 0 0 0 45.5 2.625v-.25A2.375 2.375 0 0 0 43.125 0Z"/></svg>