<svg width="16" height="20" fill="none" xmlns="http://www.w3.org/2000/svg"><path d="m4.562.505-.86.259A4.2 4.2 0 0 0 .757 4.189c-.356 2.481.44 5.383 2.362 8.71 1.916 3.32 4.026 5.458 6.348 6.394a4.2 4.2 0 0 0 4.458-.846l.65-.617a2.4 2.4 0 0 0 .297-3.147l-1.627-2.256a1.8 1.8 0 0 0-1.986-.668l-2.462.753-.063.012c-.272.04-.898-.547-1.678-1.899-.816-1.413-.984-2.24-.76-2.454l1.252-1.167a2.996 2.996 0 0 0 .69-3.42l-.794-1.766A2.4 2.4 0 0 0 4.564.506h-.002ZM6.35 2.31l.792 1.765a1.796 1.796 0 0 1-.412 2.052L5.474 7.296c-.802.761-.536 2.06.544 3.93 1.015 1.758 1.942 2.627 2.938 2.476l.148-.031 2.506-.764a.6.6 0 0 1 .663.222l1.627 2.255a1.2 1.2 0 0 1-.148 1.575l-.652.617a3 3 0 0 1-3.183.603c-2.038-.82-3.964-2.773-5.758-5.88C2.36 9.185 1.632 6.537 1.945 4.36A3 3 0 0 1 4.05 1.912l.86-.26a1.2 1.2 0 0 1 1.44.659h.001Z" fill="#000"/></svg>