<svg width="18" height="14" fill="none" xmlns="http://www.w3.org/2000/svg"><path d="M16.875 0H1.125C.827 0 .54.123.33.342.119.56 0 .857 0 1.167v11.666c0 .31.119.607.33.825.21.22.497.342.795.342h15.75c.298 0 .584-.123.796-.342.21-.218.329-.515.329-.825V1.167c0-.31-.119-.606-.33-.825A1.105 1.105 0 0 0 16.875 0Zm-.866 12.833H2.059L5.996 8.61l-.81-.81-4.061 4.357V2.053L8.117 9.27c.21.217.496.34.793.34.297 0 .582-.123.793-.34l7.172-7.396V12.08l-4.14-4.293-.793.822 4.067 4.223ZM1.862 1.167h14.102L8.91 8.44 1.862 1.167Z" fill="#000"/></svg>