<svg viewBox="0 0 20 24" fill="none" xmlns="http://www.w3.org/2000/svg"><path d="M10.111 0h-.074L0 .985V18.37L10.037 24 20 18.37V.984L10.111 0Zm8.476 8.516-8.55-4.786v-.07h-.074l-.075-.07v.07L1.413 8.516V2.182l8.55-.845 8.624.845v6.334Zm-8.624-3.73 8.55 4.715-3.346 1.83-5.279-2.956v.986l4.387 2.463-.67.352-3.717-2.111v.985l2.826 1.619-.595.351-2.23-1.266v.985l1.412.774-1.338.774-8.476-4.715 8.476-4.786Zm-8.55 5.842 8.475 4.786v.703L4.015 12.81v.986l5.948 3.378v.774L4.015 14.64v.986l5.948 3.378 6.022-3.449v-3.66l2.528-1.407v7.038l-8.55 4.856-8.55-4.786v-6.967Z"/></svg>