<svg width="16" height="24" fill="none" xmlns="http://www.w3.org/2000/svg"><path d="M13.487 5.979c-1.24-2.101-3-3.847-5.111-5.07L8 .692l-.376.217a14.113 14.113 0 0 0-7.05 12.717c.075 2.196.915 4.044 2.429 5.345 1.159.994 2.646 1.602 4.247 1.747v2.59h1.5v-12h-1.5v7.9c-2.534-.293-5.056-2.084-5.177-5.633A12.67 12.67 0 0 1 8 2.434a12.67 12.67 0 0 1 5.927 11.141c-.096 2.84-1.73 4.553-3.677 5.275v1.588a7.321 7.321 0 0 0 2.747-1.468c1.514-1.3 2.354-3.148 2.43-5.344a14.107 14.107 0 0 0-1.94-7.647Z" fill="#000"/></svg>