<svg width="52" height="52" fill="none" xmlns="http://www.w3.org/2000/svg"><path d="M14.408 18.444s-1.863 1.119-2.278 2.958c-.416 1.84 0 3.854 0 3.854s-2.922 1.206-2.922 4.996c0 3.791 2.464 4.863 2.464 4.863s.03 4.474 2.787 6.887c2.759 2.413 5.653 2.425 5.653 2.425s1.505 3.183 5.933 3.183 5.933-3.183 5.933-3.183 2.998-.438 5.653-2.425c2.654-1.986 2.581-6.887 2.581-6.887s2.67-1.07 2.67-4.863c0-3.791-2.922-4.995-2.922-4.995s.416-2.015 0-3.855c-.417-1.84-2.279-2.958-2.279-2.958" fill="#B22EC8"/><path d="M40.046 24.142c0-7.741-6.276-9.921-14.017-9.921-7.74 0-14.017 2.18-14.017 9.921S18.288 38.16 26.029 38.16c7.74 0 14.017-6.276 14.017-14.017Z" fill="#B22EC8"/><path d="M26.475 47.6s3.79-2.65 3.542-8.747c1.63-1.695 2.136-3.974.655-6.743 2.501-3.565 2.241-7.421-.75-10.345 1.232-1.78.587-3.32-.807-4.479 0 0 4.012 1.968 7.085-.845 0 0 6.459 4.644 3.76 8.816 0 0 7.131 4.82.253 9.858 0 0 1.004 7.681-8.06 9.28 0 0-2.386 2.702-5.678 3.205Z" fill="#6A107A"/><path d="M40.286 8.134c-3.084 14.391-12.549 9.485-13.835 6.954-1.286-2.531-.044-12.609 13.835-6.955Z" fill="#0F805D"/><path d="M11.804 8.134c3.084 14.391 12.549 9.485 13.835 6.954 1.285-2.531.043-12.609-13.835-6.955Z" fill="#0F805D"/><path d="M40.285 8.134c-3.083 14.391-12.548 9.485-13.834 6.954-1.286-2.531-.044-12.609 13.834-6.955v0Z" stroke="#000" stroke-width="2" stroke-miterlimit="10" stroke-linecap="round" stroke-linejoin="round"/><path d="M32.913 11.046c-2.26.868-5.156 2.264-6.438 4.084M11.803 8.134c3.084 14.391 12.549 9.485 13.835 6.954 1.285-2.531.043-12.609-13.835-6.955v0Z" stroke="#000" stroke-width="2" stroke-miterlimit="10" stroke-linecap="round" stroke-linejoin="round"/><path d="M19.176 11.046c2.262.868 5.156 2.264 6.439 4.084m-11.207 3.314s-1.863 1.119-2.278 2.958c-.416 1.84 0 3.854 0 3.854s-2.922 1.206-2.922 4.996c0 3.791 2.464 4.863 2.464 4.863s.03 4.474 2.787 6.887c2.759 2.413 5.653 2.425 5.653 2.425s1.505 3.183 5.933 3.183 5.933-3.183 5.933-3.183 2.998-.438 5.653-2.425c2.654-1.986 2.581-6.887 2.581-6.887s2.67-1.07 2.67-4.863c0-3.791-2.922-4.995-2.922-4.995s.416-2.015 0-3.855c-.417-1.84-2.279-2.958-2.279-2.958" stroke="#000" stroke-width="2" stroke-miterlimit="10" stroke-linecap="round" stroke-linejoin="round"/><path d="M30.509 21.288s-1.89 1.998-4.221 1.998m-4.382-1.998s1.89 1.998 4.221 1.998m10.029 5.26c0 2.088-1.793 3.78-4.003 3.78m-4.158-3.78c0 2.088 1.793 3.78 4.004 3.78m-7.528-3.78c0 2.088-1.793 3.78-4.004 3.78m-4.157-3.78c0 2.088 1.792 3.78 4.004 3.78m9.95 6.574c-.753 1.004-2.282 1.69-4.045 1.69m-4.306-1.813c.718 1.07 2.299 1.813 4.132 1.813m-4.169-1.554c0 .896-.555 1.704-1.443 2.27m9.875-2.27c0 .977.66 1.849 1.69 2.418" stroke="#000" stroke-width="2" stroke-miterlimit="10" stroke-linecap="round" stroke-linejoin="round"/><path d="M16.908 30.819c0 1.708-1.2 3.152-2.847 3.62m4.003-13.177c0 2.235-1.793 4.048-4.004 4.048m19.431-4.048c0 2.235 1.793 4.048 4.004 4.048M35.57 30.82c0 1.632 1.095 3.022 2.629 3.553" stroke="#000" stroke-width="2" stroke-miterlimit="10" stroke-linecap="round" stroke-linejoin="round"/></svg>