<svg width="65" height="36" fill="none" xmlns="http://www.w3.org/2000/svg"><path d="M9.48 31.2c-.614 0-.974-.307-1.08-.92a22.118 22.118 0 0 1-.2-2.88A431.6 431.6 0 0 1 8 21c-.027-2.24-.04-3.867-.04-4.88a3.443 3.443 0 0 0-1.4 1.12c-.32.453-.627 1.04-.92 1.76-.48 1.307-.72 2.6-.72 3.88v1c0 .16-.014.653-.04 1.48a26.92 26.92 0 0 1-.24 2.72c-.16 1.333-.827 2.333-2 3-.187.107-.427.16-.72.16-.347 0-.64-.08-.88-.24-.214-.187-.28-.44-.2-.76.053-.187.133-.32.24-.4.106-.08.253-.16.44-.24.213-.08.373-.16.48-.24.4-.373.6-.88.6-1.52l.04-3.36c.053-1.307.12-2.307.2-3 .08-.72.28-1.547.6-2.48.106-.347.36-.893.76-1.64.4-.773.693-1.267.88-1.48-1.414-.693-2.4-1.56-2.96-2.6-.534-1.04-.8-2.56-.8-4.56 0-1.573.28-3.12.84-4.64.56-1.493 1.48-2.44 2.76-2.84l1.76-.6c.24-.107.506-.16.8-.16.56 0 1.2.24 1.92.72.453.267.68.707.68 1.32-.16 2.24-.24 3.933-.24 5.08V16.48c0 2.827.026 4.96.08 6.4.026 1.093.066 2.067.12 2.92.053.853.093 1.56.12 2.12l.12 2.2v.24c0 .347-.054.573-.16.68-.107.107-.32.16-.64.16ZM7.8 2.16a22.2 22.2 0 0 1-.92.32c-.454.16-.854.347-1.2.56-.4.187-.774.587-1.12 1.2a8.952 8.952 0 0 0-.76 1.88c-.187.667-.267 1.173-.24 1.52l.08 1.76c0 .827.013 1.48.04 1.96.026.747.24 1.373.64 1.88.426.48 1.013.813 1.76 1 .293.08.626.2 1 .36.4.133.693.24.88.32L7.8 2.16Zm7.637 29.16c-.027-.107-.08-.293-.16-.56a2.057 2.057 0 0 1-.04-.68c.053-3.093.133-5.4.24-6.92.026-.56.04-1.387.04-2.48 0-1.973-.094-4.36-.28-7.16-.16-3.413-.24-6-.24-7.76 0-.4.16-.76.48-1.08.32-.32.706-.48 1.16-.48 1.52 0 2.84.12 3.96.36.533.107.88.293 1.04.56.16.24.213.653.16 1.24-.374.24-.76.36-1.16.36a3.37 3.37 0 0 1-.6-.08c-.24-.053-.88-.107-1.92-.16h-.08c-.374 0-.56.2-.56.6-.134 3.867-.2 6.067-.2 6.6.053 2.773.106 4.867.16 6.28 0 .187.013.413.04.68.026.267.026.493 0 .68-.08 1.227-.12 2.52-.12 3.88 0 2.213.04 3.76.12 4.64-.027.587-.12.987-.28 1.2-.16.24-.454.36-.88.36-.107 0-.4-.027-.88-.08Zm13.773.44c-.694 0-1.334-.227-1.92-.68-.587-.427-1.067-1.013-1.44-1.76-.774-1.627-1.254-3.4-1.44-5.32-.24-1.813-.36-3.56-.36-5.24 0-.32.013-.587.04-.8v-.72c0-.133-.014-.2-.04-.2v-.72l.04-2.8c.026-.853.133-2.213.32-4.08.133-1.28.44-2.52.92-3.72.187-.533.427-.933.72-1.2.293-.293.627-.44 1-.44 1.066 0 2.026.2 2.88.6a5.868 5.868 0 0 1 2.16 1.6c.533.667.986 1.493 1.36 2.48.373.96.64 1.987.8 3.08.16 1.12.24 2.307.24 3.56v.32c0 .827.013 1.573.04 2.24l.04 2.28c0 7.68-1.787 11.52-5.36 11.52Zm-.16-1.68c.48 0 .92-.187 1.32-.56.4-.4.706-.933.92-1.6.507-1.36.813-2.827.92-4.4.133-1.36.2-2.533.2-3.52 0-1.2-.093-2.773-.28-4.72-.16-2.053-.24-3.587-.24-4.6v-.72c-.053-1.013-.4-1.893-1.04-2.64-.614-.747-1.373-1.12-2.28-1.12-.907 0-1.507.52-1.8 1.56-.267.827-.4 1.893-.4 3.2 0 .507.013.933.04 1.28v1.08l-.08 1.84c-.053.56-.08 1.173-.08 1.84 0 1.44.04 2.867.12 4.28.107 2 .373 3.947.8 5.84.426 1.973 1.053 2.96 1.88 2.96Zm23.843 5.84c-.213.053-.373.08-.48.08-.32 0-.547-.2-.68-.6-.107-.32-.16-.72-.16-1.2l.04-2.76c0-.16-.013-.307-.04-.44l-.08-.4h-4.6c.267 0-.373.133-1.92.4-1.52.24-2.707.4-3.56.48l-1.8.16-2 .2v.88c.027.347.027.76 0 1.24v.2c0 .427-.107.747-.32.96-.213.213-.413.32-.6.32-.107 0-.267-.053-.48-.16-.48-.347-.747-.827-.8-1.44l-.12-2.92c-.053-1.04.373-1.56 1.28-1.56.507-.027.907-.16 1.2-.4.293-.24.64-.613 1.04-1.12.4-.533.707-1.12.92-1.76.24-.667.467-1.467.68-2.4.24-1.013.413-2 .52-2.96.107-.96.24-2.333.4-4.12.24-2.8.36-5.613.36-8.44l-.04-2.24c0-.507.147-.92.44-1.24.293-.347.693-.52 1.2-.52.16 0 .28.013.36.04 1.227.213 2.227.347 3 .4h.2c.347 0 .547-.067.6-.2.24-.32.533-.48.88-.48.24 0 .453.053.64.16.427.16.707.56.84 1.2l-.2 6.84c0 3.707.013 6.48.04 8.32 0 .96.027 2.427.08 4.4l.04 2.2c0 .213.013.413.04.6l.08.56c.533.053.933.08 1.2.08.213 0 .373-.013.48-.04a1.942 1.942 0 0 1 1.56.44c.48.347.72.8.72 1.36 0 .72-.053 1.8-.16 3.24 0 .373-.027.907-.08 1.6-.053.56-.293.907-.72 1.04Zm-11.52-6.36c1.493-.133 2.667-.253 3.52-.36a17.48 17.48 0 0 0 2.6-.6c.267-3.227.4-6.68.4-10.36 0-3.413-.133-7.16-.4-11.24-.693-.027-1.987-.093-3.88-.2l-.04 1.88c-.213 4.107-.36 7.173-.44 9.2a33.269 33.269 0 0 1-1.56 8.96c-.053.16-.173.56-.36 1.2a4.45 4.45 0 0 1-.76 1.6l.92-.08Zm22.795 1.8c-.614 0-1.067-.093-1.36-.28-.294-.187-.44-.533-.44-1.04 0-.8-.134-2.16-.4-4.08l-.16-.84-3.96-.6c-.16.613-.387 1.853-.68 3.72-.16 1.307-.414 2.173-.76 2.6-.187.24-.454.36-.8.36a1.5 1.5 0 0 1-.88-.28c-.267-.213-.4-.467-.4-.76l.08-.2.04-.16c1.76-6.853 3.093-13.613 4-20.28 0-.107.013-.28.04-.52.026-.267.053-.64.08-1.12.08-.987.16-1.773.24-2.36.106-.587.266-1.027.48-1.32h1.36c.373 0 .693.093.96.28.266.16.4.4.4.72 0 2.027.28 5.04.84 9.04.533 4.107.8 6.987.8 8.64 0 .16.066.573.2 1.24.133.613.2 1.013.2 1.2 0 .187.133.987.4 2.4.24 1.28.36 2.107.36 2.48v.04c0 .587-.214.96-.64 1.12Zm-2.64-7.68c-.08-.4-.12-.893-.12-1.48 0-2.4-.214-5.467-.64-9.2l-.4-4.16c-1.147 6.267-1.934 11-2.36 14.2.4.267 1.573.48 3.52.64Z" fill="#0F805D"/></svg>