<svg viewBox="0 0 20 20" fill="none" xmlns="http://www.w3.org/2000/svg"><path d="M18.156 2.812a1.242 1.242 0 0 0-1.258-.195L2.565 8.403a1.234 1.234 0 0 0 .062 2.307l3.093 1.074 1.676 5.54c.003.012.014.02.018.03a.391.391 0 0 0 .255.234c.009.003.014.01.022.012h.007c.062.014.127.01.187-.009.006-.001.013-.001.02-.004a.394.394 0 0 0 .153-.097c.004-.006.012-.007.017-.012l2.41-2.66 3.518 2.724c.214.167.477.257.748.257a1.24 1.24 0 0 0 1.215-.985L18.576 4a1.226 1.226 0 0 0-.42-1.189v.001ZM8.27 12.836l-.565 2.75-1.18-3.903 5.852-3.048-3.998 3.999a.4.4 0 0 0-.109.202Zm6.912 3.818a.43.43 0 0 1-.278.319.42.42 0 0 1-.411-.063l-3.81-2.95a.4.4 0 0 0-.541.047l-1.678 1.849.565-2.742 5.751-5.752a.4.4 0 0 0-.467-.637l-8.29 4.318-3.134-1.09A.42.42 0 0 1 2.6 9.56a.426.426 0 0 1 .267-.414l14.331-5.787a.429.429 0 0 1 .447.069.418.418 0 0 1 .146.414l-2.61 12.812Z"/></svg>