<svg width="32" height="32" fill="none" xmlns="http://www.w3.org/2000/svg"><circle cx="16" cy="16" r="15.5" stroke="#0F805D"/><path d="M23.156 7.812a1.242 1.242 0 0 0-1.257-.195L7.565 13.403a1.235 1.235 0 0 0 .062 2.307l3.093 1.074 1.676 5.54c.003.012.014.02.019.03a.39.39 0 0 0 .255.234c.008.003.013.01.021.012h.008c.062.014.126.01.186-.009.006-.001.013-.001.02-.004a.394.394 0 0 0 .153-.097c.005-.006.013-.007.017-.012l2.41-2.66 3.518 2.724c.214.167.477.257.748.257a1.24 1.24 0 0 0 1.215-.985L23.576 9a1.225 1.225 0 0 0-.42-1.189v.001Zm-9.885 10.024-.566 2.75-1.18-3.903 5.852-3.048-3.998 3.999a.4.4 0 0 0-.108.202Zm6.91 3.818a.432.432 0 0 1-.277.319.42.42 0 0 1-.411-.063l-3.81-2.95a.4.4 0 0 0-.541.047l-1.678 1.849.565-2.742 5.751-5.752a.4.4 0 0 0-.467-.637l-8.29 4.318-3.134-1.09a.42.42 0 0 1-.289-.393.426.426 0 0 1 .267-.414L22.2 8.359a.429.429 0 0 1 .446.069.418.418 0 0 1 .146.414l-2.61 12.812Z" fill="#0F805D"/></svg>