<svg viewBox="0 0 20 16" fill="none" xmlns="http://www.w3.org/2000/svg"><g clip-path="url(#a)"><path d="M1.4 5.176c0-.503.343-.774 1.03-.814l2.644.015c.178 0 .296.074.355.222.272.74.577 1.378.914 1.916.338.537.778 1.156 1.323 1.856a.242.242 0 0 0 .23.133.224.224 0 0 0 .196-.103l.053-.163.018-2.56c0-.177-.05-.295-.151-.354-.1-.06-.287-.104-.56-.133-.212-.03-.319-.138-.319-.326 0-.04.006-.069.018-.089.249-.64.959-.961 2.13-.961l.994-.015c.45 0 .822.094 1.118.281.296.187.444.483.444.888v3.358c.083.049.16.074.23.074.178 0 .332-.09.462-.267 1.302-1.518 2.006-2.534 2.113-3.047 0-.01.011-.034.035-.074.083-.148.219-.276.408-.385.19-.108.355-.182.497-.221.048-.02.1-.03.16-.03h2.751l.178.015c.236 0 .42.093.55.28.047.06.08.124.098.193.017.07.03.138.035.207l.009.119v.103c-.083.404-.293.836-.63 1.295-.337.458-.766.954-1.287 1.486-.52.533-.846.883-.976 1.05-.107.119-.16.227-.16.326 0 .079.047.168.142.266l2.591 2.722c.143.158.213.33.213.518 0 .227-.106.414-.319.562a1.484 1.484 0 0 1-.763.252l-.302.014h-2.698a.632.632 0 0 0-.071.008.65.65 0 0 1-.071.007c-.26 0-.503-.094-.728-.281-.083-.079-.639-.66-1.668-1.746a.899.899 0 0 0-.249-.192c-.047.158-.11.385-.186.68a47.49 47.49 0 0 1-.169.637l-.053.251c-.118.345-.367.552-.745.622l-.249.014h-1.74c-.982 0-1.96-.374-2.937-1.124-.976-.75-1.855-1.718-2.636-2.907-.781-1.188-1.509-2.571-2.183-4.15a1.012 1.012 0 0 1-.089-.428Zm10.668 3.831a1.35 1.35 0 0 1-.675-.17c-.2-.113-.302-.269-.302-.466V4.97c0-.198-.059-.338-.177-.422-.118-.084-.325-.126-.621-.126l-1.012.03c-.509 0-.893.074-1.154.222.52.207.781.542.781 1.006v2.603a.852.852 0 0 1-.355.614c-.213.163-.45.244-.71.244-.355 0-.627-.143-.816-.429-.923-1.163-1.61-2.268-2.06-3.313l-.159-.385-2.36-.015c-.155 0-.24.008-.258.022-.018.015-.027.057-.027.126 0 .089.012.183.036.281l.373.829c.994 2.14 2.073 3.826 3.239 5.059 1.165 1.233 2.31 1.849 3.435 1.849h1.774c.072 0 .125-.017.16-.052a.425.425 0 0 0 .089-.2l.036-.148.337-1.301c.094-.178.177-.296.248-.355a.698.698 0 0 1 .462-.163c.284 0 .574.143.87.429l1.508 1.598c.095.128.195.192.302.192h2.929c.355 0 .532-.074.532-.222a.252.252 0 0 0-.053-.148l-2.574-2.677c-.2-.207-.301-.43-.301-.666 0-.237.094-.464.284-.68.153-.198.452-.526.896-.984.444-.459.831-.888 1.162-1.287.332-.4.55-.762.657-1.088l.053-.192a.196.196 0 0 1-.017-.096.301.301 0 0 0-.018-.11h-2.787a.973.973 0 0 0-.426.265l-.106.281c-.296.68-1.071 1.731-2.325 3.151a1.358 1.358 0 0 1-.87.296Z"/></g><defs><clipPath id="a"><path fill="#fff" transform="translate(.4 .8)" d="M0 0h19.2v15.086H0z"/></clipPath></defs></svg>