<svg width="32" height="32" fill="none" xmlns="http://www.w3.org/2000/svg"><circle cx="16" cy="16" r="15.5" stroke="#0F805D"/><g clip-path="url(#a)"><path d="M7.4 13.175c0-.502.343-.774 1.03-.813l2.644.015c.178 0 .296.074.355.222.272.74.577 1.378.914 1.915a23.16 23.16 0 0 0 1.323 1.857.242.242 0 0 0 .23.133.224.224 0 0 0 .196-.104l.053-.162.018-2.56c0-.177-.05-.295-.151-.355-.1-.059-.287-.103-.56-.133-.212-.03-.319-.138-.319-.325 0-.04.006-.07.018-.089.248-.64.958-.961 2.13-.961l.994-.015c.45 0 .822.093 1.118.28.296.188.444.484.444.888v3.358c.083.05.16.074.23.074.178 0 .332-.088.462-.266 1.302-1.519 2.006-2.534 2.112-3.047 0-.01.012-.035.036-.074.083-.148.219-.276.408-.385.19-.108.355-.182.497-.222.047-.02.1-.03.16-.03h2.751l.178.016c.236 0 .42.093.55.28a.51.51 0 0 1 .098.193c.017.069.03.138.035.207l.009.118v.104c-.083.404-.293.836-.63 1.294-.338.459-.767.954-1.287 1.487-.52.533-.846.883-.976 1.05-.107.119-.16.227-.16.326 0 .079.047.167.142.266l2.591 2.722c.142.158.213.33.213.518 0 .226-.106.414-.32.562a1.483 1.483 0 0 1-.762.251l-.302.015h-2.698a.656.656 0 0 0-.071.007.658.658 0 0 1-.071.008c-.26 0-.503-.094-.728-.281-.083-.08-.639-.661-1.668-1.746a.893.893 0 0 0-.249-.192c-.047.158-.11.384-.186.68-.077.296-.133.508-.169.636l-.053.252c-.119.345-.367.552-.746.621l-.248.015h-1.74c-.982 0-1.961-.375-2.937-1.124-.976-.75-1.855-1.719-2.636-2.907-.781-1.188-1.509-2.572-2.183-4.15a1.012 1.012 0 0 1-.09-.428Zm10.668 3.832a1.35 1.35 0 0 1-.675-.17c-.201-.114-.302-.269-.302-.466v-3.403c0-.197-.059-.337-.177-.421-.119-.084-.326-.126-.621-.126l-1.012.03c-.509 0-.894.074-1.154.222.52.207.781.542.781 1.005v2.604a.852.852 0 0 1-.355.614c-.213.163-.45.244-.71.244-.355 0-.627-.143-.816-.429-.923-1.164-1.61-2.268-2.06-3.314l-.16-.384-2.36-.015c-.154 0-.24.007-.257.022-.018.015-.027.057-.027.126 0 .089.012.182.036.281l.372.828c.994 2.14 2.074 3.827 3.24 5.06 1.165 1.232 2.31 1.849 3.434 1.849h1.775c.071 0 .125-.018.16-.052a.425.425 0 0 0 .089-.2l.035-.148.338-1.302c.094-.177.177-.295.248-.354a.698.698 0 0 1 .462-.163c.284 0 .573.143.87.429l1.508 1.597c.095.129.195.193.302.193h2.929c.355 0 .532-.074.532-.222a.252.252 0 0 0-.053-.148l-2.574-2.678c-.201-.207-.302-.429-.302-.665 0-.237.095-.464.284-.68.154-.198.453-.526.897-.985.444-.458.831-.887 1.162-1.287.332-.399.55-.761.657-1.087l.053-.192a.194.194 0 0 1-.017-.096.302.302 0 0 0-.018-.111h-2.787a.973.973 0 0 0-.426.266l-.106.281c-.296.68-1.071 1.73-2.326 3.151a1.358 1.358 0 0 1-.87.296Z" fill="#0F805D"/></g><defs><clipPath id="a"><path fill="#fff" transform="translate(6.4 8.8)" d="M0 0h19.2v15.086H0z"/></clipPath></defs></svg>