<svg viewBox="0 0 20 20" fill="none" xmlns="http://www.w3.org/2000/svg"><path d="m12.565 9.752-3.6-2.4A.3.3 0 0 0 8.5 7.6v4.8a.293.293 0 0 0 .158.262.339.339 0 0 0 .142.038.27.27 0 0 0 .165-.052l3.6-2.4a.292.292 0 0 0 0-.496ZM9.1 11.837V8.163L11.86 10 9.1 11.838Zm8.588-6.127a1.53 1.53 0 0 0-.908-1.02c-2.535-.975-6.608-.96-6.78-.96-.172 0-4.245-.015-6.78.96a1.53 1.53 0 0 0-.907 1.02C2.125 6.437 1.9 7.772 1.9 10c0 2.227.225 3.563.413 4.29a1.53 1.53 0 0 0 .907 1.02c2.535.975 6.608.96 6.78.96h.053c.517 0 4.32-.03 6.727-.96a1.531 1.531 0 0 0 .907-1.02c.188-.727.413-2.063.413-4.29 0-2.228-.225-3.563-.413-4.29Zm-.585 8.43a.9.9 0 0 1-.54.607c-2.43.938-6.518.923-6.563.923-.045 0-4.132.015-6.562-.922a.9.9 0 0 1-.54-.608c-.18-.697-.398-1.98-.398-4.14 0-2.16.218-3.443.398-4.14a.9.9 0 0 1 .54-.608C5.868 4.315 9.955 4.33 10 4.33c.045 0 4.133-.015 6.563.922a.9.9 0 0 1 .54.608c.18.697.397 1.98.397 4.14 0 2.16-.218 3.443-.398 4.14Z"/></svg>