<svg width="32" height="32" fill="none" xmlns="http://www.w3.org/2000/svg"><circle cx="16" cy="16" r="15.5" stroke="#0F805D"/><path d="m18.565 15.752-3.6-2.4a.3.3 0 0 0-.465.248v4.8a.292.292 0 0 0 .157.263.339.339 0 0 0 .143.037.27.27 0 0 0 .165-.052l3.6-2.4a.293.293 0 0 0 0-.496ZM15.1 17.837v-3.675L17.86 16l-2.76 1.837Zm8.587-6.127a1.53 1.53 0 0 0-.907-1.02c-2.535-.975-6.608-.96-6.78-.96-.173 0-4.245-.015-6.78.96a1.53 1.53 0 0 0-.908 1.02c-.187.727-.412 2.063-.412 4.29s.225 3.563.412 4.29a1.53 1.53 0 0 0 .908 1.02c2.535.975 6.607.96 6.78.96h.052c.518 0 4.32-.03 6.728-.96a1.53 1.53 0 0 0 .907-1.02c.188-.727.413-2.063.413-4.29s-.225-3.563-.413-4.29Zm-.585 8.43a.9.9 0 0 1-.54.607c-2.43.938-6.517.923-6.562.923-.045 0-4.133.015-6.563-.923a.9.9 0 0 1-.54-.607c-.18-.698-.397-1.98-.397-4.14 0-2.16.217-3.443.397-4.14a.9.9 0 0 1 .54-.607c2.43-.938 6.518-.923 6.563-.923.045 0 4.132-.015 6.562.922a.9.9 0 0 1 .54.608c.18.697.398 1.98.398 4.14 0 2.16-.218 3.442-.398 4.14Z" fill="#0F805D"/></svg>