<svg width="33" height="32" fill="none" xmlns="http://www.w3.org/2000/svg"><path d="M25.833 9.333c0-1.466-1.2-2.666-2.666-2.666h-4v2.666h4v3.534l-4.64 5.8h-4.694V12H8.5a5.332 5.332 0 0 0-5.333 5.333v4h2.666c0 2.214 1.787 4 4 4 2.214 0 4-1.786 4-4h5.974l6.026-7.533V9.333Zm-20 9.334v-1.334c0-1.466 1.2-2.666 2.667-2.666h2.667v4H5.833Zm4 4c-.733 0-1.333-.6-1.333-1.334h2.667c0 .734-.6 1.334-1.334 1.334Z" fill="#0F805D"/><path d="M7.167 8h6.666v2.667H7.167V8Zm18.666 9.333c-2.213 0-4 1.787-4 4 0 2.214 1.787 4 4 4 2.214 0 4-1.786 4-4 0-2.213-1.786-4-4-4Zm0 5.334c-.733 0-1.333-.6-1.333-1.334 0-.733.6-1.333 1.333-1.333.734 0 1.334.6 1.334 1.333 0 .734-.6 1.334-1.334 1.334Z" fill="#0F805D"/></svg>