<svg width="228" height="32" fill="none" xmlns="http://www.w3.org/2000/svg"><path d="M99.68 16.12a.229.229 0 0 0-.048-.128l.12-.002-.071.13Zm-9.587 13.345c.614-4.816 3.936-10.858 9.416-13.115.03-.011.048-.028.07-.043-1.346 2.526-2.055 5.223-3.574 7.717-1.323 2.174-3.56 3.897-5.912 5.44ZM72.05 27.749c-.474.788-3.178 4.216-2.94 2.2.195-1.663.75-3.291 1.372-4.886 1.284-3.291 3.687-6.05 6.877-8.375-.814.961-1.169 2.22-1.545 3.277-.94 2.646-2.267 5.291-3.764 7.784ZM64.92 5.333c-1.972-2.264 1.584-1.042 3.236-.632 2.733.676 5.334 1.82 7.704 3.053 3.627 1.888 7.131 3.926 9.416 6.804-7.886-1.24-15.684-3.856-20.357-9.225Zm23.772.673c-.895-.594-1.689-1.262-2.473-1.94.176.155-2.43-3.027-2.303-2.992 5.138 1.398 9.691 3.535 13.68 6.391 2.932 2.1 4.782 4.965 7.58 7.142-3.983-1.378-7.312-3.33-10.88-5.29-1.922-1.056-3.814-2.124-5.604-3.311Zm-42.615 22.81c-1.553 1.45-1.945 1.105-1.939-.666.007-1.874 1.111-3.66 2.309-5.235 2-2.628 5.174-4.655 8.018-6.717h.087c-2.61 4.368-4.415 8.832-8.475 12.619ZM30.563 19.85c-1.713 2.373-3.213 4.915-6.663 5.883.728-4.4 4.917-7.81 10.123-9.4-1.525.86-2.621 2.35-3.46 3.517ZM2.319 15.38c5.75-1.552 11.235-1.392 17.008-.296-1.084.01-2.165.019-3.248.027-.399.004-.554.287-.473.513-4.566.537-9.341 1.74-13.287-.244ZM19.931 4.745c7.569.07 13.153 5.146 18.072 9.307-3.301-1.207-6.948-1.81-10.07-3.43-3.049-1.582-5.38-3.893-8.002-5.877Zm19.44-1.544c9.053 1.384 16.408 5.08 20.999 11.23-8.108-1.555-17.282-5.159-20.998-11.23Zm72.263 12.086c-1.619-.043-3.239-.07-4.859-.106.065-.105.057-.237-.078-.357-3.509-3.105-6.252-6.56-10.349-9.253-3.893-2.56-8.605-4.233-13.382-5.554-.33-.091-.74.203-.601.464 1.933 3.653 5.398 6.123 9.436 8.451 3.538 2.04 7.628 5.068 12.062 6.186-5.747-.116-11.497-.206-17.248-.257-1.28-2.79-4.76-4.757-7.745-6.45-4.68-2.653-9.783-4.603-15.542-5.356-.356-.046-.668.16-.582.448 1.067 3.517 5.3 6.097 8.964 8.05 2.16 1.152 5.193 2.533 8.264 3.266-6.153-.032-12.307-.04-18.462-.025C58.964 7.528 47.352 3.43 38.603 2.257c-.35-.048-.815.183-.65.5C40.92 8.53 49.458 13.248 57.55 14.81c-5.863.022-11.725.055-17.588.1a.348.348 0 0 0-.129-.109c-.235-.11-.481-.204-.721-.306C33.828 9.566 27.544 3.332 18.435 3.836c-.518.028-.85.508-.439.817 2.765 2.074 5.24 4.5 8.348 6.283 3.34 1.917 7.283 3.103 11.28 3.994-5.107.04-10.212.084-15.318.129-6.766-2.771-14.984-2.71-21.928-.362-.436.148-.504.696-.155.927 2.553 1.683 5.731 1.875 8.976 1.816 3.899-.07 8.965-.228 12.66-1.24.147-.04.225-.142.226-.242 3.41.03 6.821.057 10.232.086-5.41 1.54-9.19 5.71-9.447 10.206-.014.241.311.41.6.352 2.906-.585 4.739-2.102 6.268-4.021.901-1.134 1.645-2.338 2.545-3.473 1.066-1.346 2.363-2.046 4.021-2.884a.344.344 0 0 0 .158-.145c5.536.045 11.071.084 16.61.113-6.021 3.539-11.653 8.537-9.957 14.735.069.252.502.464.827.361 3.017-.948 4.803-3.503 6.362-5.565 2.294-3.036 3.765-6.224 5.333-9.506.002-.005 0-.01.002-.016 6.93.03 13.86.044 20.788.02-5.818 3.188-9.195 10.064-8.707 15.324a.54.54 0 0 0 .587.453c2.871-.25 4.677-3.719 5.591-5.43 1.733-3.243 2.67-7.542 5.346-10.365a1645.3 1645.3 0 0 0 19.346-.198c-6.446 1.785-10.117 9.935-9.948 14.633.017.475.708.655 1.15.367 6.243-4.086 8.823-9.021 10.909-15.036 3.645-.065 7.29-.141 10.933-.238.372-.01.372-.434 0-.444ZM128.247 15.99c.04 0 .081 0 .12.002a.23.23 0 0 0-.047.128l-.073-.13Zm3.748 8.034c-1.519-2.495-2.229-5.19-3.574-7.717.023.015.04.032.07.043 5.481 2.257 8.801 8.3 9.417 13.115-2.353-1.544-4.59-3.267-5.913-5.441Zm20.19-4.06c-.375-1.057-.73-2.315-1.544-3.276 3.19 2.325 5.593 5.084 6.877 8.375.621 1.595 1.177 3.223 1.374 4.886.236 2.016-2.468-1.412-2.941-2.2-1.497-2.493-2.825-5.138-3.766-7.784Zm-9.462-5.406c2.287-2.878 5.79-4.916 9.419-6.804 2.369-1.232 4.969-2.377 7.702-3.053 1.652-.41 5.207-1.632 3.237.632-4.672 5.369-12.47 7.986-20.358 9.225Zm-9.018-5.241c-3.569 1.96-6.897 3.912-10.881 5.29 2.798-2.177 4.649-5.042 7.58-7.142 3.989-2.856 8.542-4.993 13.681-6.391.126-.035-2.48 3.147-2.304 2.993-.784.677-1.577 1.345-2.473 1.939-1.791 1.187-3.681 2.255-5.603 3.31Zm39.744 6.882.086-.001c2.844 2.062 6.017 4.089 8.018 6.717 1.199 1.576 2.302 3.361 2.31 5.235.005 1.771-.387 2.116-1.939.667-4.06-3.787-5.864-8.25-8.475-12.618Zm20.527.134c5.207 1.59 9.395 5 10.124 9.4-3.448-.968-4.95-3.51-6.663-5.884-.84-1.165-1.933-2.655-3.461-3.516Zm18.419-.708c.079-.226-.076-.509-.473-.513l-3.249-.027c5.773-1.096 11.259-1.256 17.008.296-3.946 1.983-8.72.781-13.286.244Zm-12.328-5.003c-3.121 1.62-6.768 2.223-10.07 3.43 4.919-4.16 10.504-9.237 18.072-9.307-2.622 1.984-4.954 4.295-8.002 5.877Zm-32.436 3.808c4.591-6.15 11.945-9.845 20.997-11.229-3.717 6.071-12.889 9.675-20.997 11.23Zm-51.265 1.301c3.644.097 7.288.173 10.933.238 2.086 6.014 4.665 10.95 10.91 15.036.441.289 1.132.108 1.149-.367.17-4.698-3.502-12.848-9.947-14.633 6.448.107 12.896.167 19.345.198 2.677 2.823 3.612 7.122 5.345 10.365.916 1.711 2.721 5.18 5.592 5.43.334.028.566-.23.586-.453.488-5.26-2.888-12.136-8.706-15.324 6.928.024 13.859.01 20.788-.02l.001.016c1.57 3.282 3.04 6.47 5.333 9.506 1.56 2.062 3.346 4.617 6.363 5.565.325.103.758-.109.827-.361 1.696-6.198-3.936-11.196-9.955-14.735 5.536-.029 11.073-.068 16.608-.113a.335.335 0 0 0 .158.145c1.658.838 2.955 1.538 4.022 2.884.899 1.135 1.644 2.34 2.546 3.473 1.527 1.919 3.36 3.436 6.266 4.02.288.059.615-.11.6-.35-.258-4.497-4.039-8.668-9.447-10.207 3.411-.03 6.823-.056 10.233-.086.001.1.079.201.226.242 3.694 1.012 8.76 1.17 12.659 1.24 3.244.06 6.424-.133 8.976-1.816.348-.23.282-.78-.155-.927-6.944-2.349-15.161-2.409-21.927.362-5.107-.045-10.212-.088-15.319-.129 3.996-.891 7.939-2.077 11.28-3.994 3.108-1.782 5.583-4.21 8.348-6.283.41-.309.08-.789-.439-.817-9.109-.504-15.394 5.73-20.677 10.659-.241.102-.485.195-.721.306a.349.349 0 0 0-.13.11c-5.861-.046-11.724-.079-17.587-.101 8.092-1.563 16.631-6.28 19.598-12.052.164-.318-.301-.549-.651-.501-8.75 1.173-20.361 5.27-22.91 12.537a2427.69 2427.69 0 0 0-18.462.025c3.073-.733 6.104-2.114 8.264-3.266 3.665-1.953 7.898-4.533 8.965-8.05.087-.288-.226-.494-.582-.448-5.759.753-10.864 2.703-15.543 5.357-2.984 1.692-6.464 3.66-7.745 6.45-5.749.05-11.5.14-17.247.256 4.433-1.118 8.524-4.145 12.063-6.186 4.037-2.328 7.501-4.798 9.436-8.45.139-.262-.273-.556-.602-.465-4.777 1.32-9.488 2.994-13.382 5.554-4.097 2.693-6.841 6.148-10.349 9.253-.135.12-.143.252-.079.357-1.619.037-3.239.063-4.858.107-.373.009-.373.434 0 .443Z" fill="#8E9892" fill-opacity=".7"/></svg>