<svg width="76" height="32" fill="none" xmlns="http://www.w3.org/2000/svg"><path d="M63.42 14.404a38.688 38.688 0 0 1-1.709-2.71C61 10.443 59.54 6.09 61.536 5.02c-.441 1.863 1.483 4.601 2.093 6.218.75 1.984 1.523 4.544 2.681 6.584-1.09-.962-2-2.123-2.89-3.42Zm3.31-1.679c.17 1.626.4 3.248.65 4.866-.685-1.667-1.583-3.305-2.264-4.915-1.092-2.584-1.863-5.288-2.959-7.865.021-.003.038-.012.06-.014 3.29-.438 4.287 5.775 4.513 7.928Zm.293 16.666c-.383.824-1.513.936-1.979.106-.326-.58.202-1.507.584-1.91.056-.06.106-.096.155-.133.104.052.25.023.303-.089l.006-.014c.293.04.507.482.95.703a.567.567 0 0 0 .216.06c.02.446-.06.896-.235 1.276Zm-7.377-3.439c-.528 1.533-1.195 3.277-2.333 4.444-.375.386-.714.37-1.013.178.37-2.105.858-3.839 1.825-5.812.577-1.18 1.293-2.334 1.822-3.552.137-.107.272-.21.409-.31-.093 1.788-.107 3.299-.71 5.052Zm-3.608-.571c.605-1.034 1.478-2.02 2.425-2.906-.535 1.06-1.037 2.139-1.531 3.188-.564 1.197-1.201 2.57-1.441 3.939l-.058-.098c-.77-1.335-.083-2.946.605-4.123Zm-11.79-11.593c-.685-.886-1.336-1.79-1.915-2.754-.396-.66-.536-1.42-.993-2.028-.073-.098-.197-.074-.276-.004-.046-1.252.114-2.628.293-3.821.149-.996.515-1.688.99-2.11.77 4.537 1.982 9.065 4.238 13.056-.85-.687-1.639-1.44-2.336-2.339Zm2.44-8.21c.757 3.369-.715 6.824.25 10.05-.832-1.972-1.685-3.931-2.389-5.963-.78-2.25-.797-4.733-1.694-6.92 1.4-.647 3.304.473 3.833 2.833Zm-3.712 19.62c-.021-.818.805-1.333 1.486-1.478.848-.182.9.68.95 1.408a.288.288 0 0 0 .05.144c-.615.982-2.45 1.319-2.486-.073Zm-5.614-5.428c-1.437 2.009-2.191 4.419-3.965 6.178-.786.78-1.568.949-2.206.735 1.405-4.122 4.542-7.14 8.208-9.052-.745.556-1.396 1.245-2.037 2.14Zm-7.53 3.886c.264-1.306 1.07-2.32 1.967-3.226 1.56-1.577 3.435-2.323 5.41-2.832-.835.574-1.597 1.27-2.18 1.788-2.039 1.81-3.733 4.063-4.712 6.653-.455-.587-.673-1.459-.485-2.383ZM21.042 4.24c-.395-1.105-.085-1.929.93-2.471 1.213 3.514 2.645 7.1 4.664 10.224-2.515-2.004-4.613-4.592-5.593-7.753Zm2.169-2.918a4.917 4.917 0 0 1 1.951 1.31c1.423 1.349 1.631 3.479 1.736 5.333.082 1.464.03 2.903.436 4.246a152.58 152.58 0 0 1-2.932-5.808c-.723-1.52-1.008-3.45-2.02-4.815.249-.098.517-.191.829-.266ZM9.031 30.546c-.059.01-.109.001-.163.002 1.15-3.85 2.078-7.708 3.66-11.388-.252.906-.37 1.877-.486 2.662-.303 2.056-.649 4.381-.39 6.468-.594 1.075-1.29 2.084-2.622 2.256Zm-1.51-4.335c.586-2.056 2.035-3.704 3.45-5.361-1.45 2.984-2.476 6.26-2.755 9.516-1.06-.716-.94-3.298-.694-4.155ZM6.3 14.324c-1.024-.365-1.996-.924-2.911-1.513-.38-.246-3.245-3.533-2.522-4.067 1.847 1.566 3.995 2.79 6.082 3.966 1.669.94 3.464 2.006 5.313 2.692-1.997-.276-3.987-.375-5.962-1.078Zm7.226.99c-1.895-1.32-4.168-2.215-6.188-3.293-1.941-1.036-3.79-2.255-5.703-3.337 4.69.176 9.373 2.536 11.891 6.63Zm3.789 9.223c-1.215-.053-1.67-1.281-1.068-2.236.694-1.102 1.885-.543 2.735-.046.086.94-.643 2.325-1.667 2.282ZM2.91 26.327c-.51.025-.692-.529-.745-.962-.064-.523.282-.96.677-1.236.367-.257.829-.4 1.266-.29.312.08.452.474.751.598-.199.913-1.036 1.845-1.95 1.89ZM14.578 5.403c1.162.287.956 2.018.686 2.87-.147.463-.417.964-.813 1.252-.804.155-1.622-.78-2.024-1.66-.723-1.582.572-2.85 2.151-2.462Zm16.76 1.325c-.42-1.104-.055-2.277 1.064-2.684 1.07-.393 1.782.504 1.797 1.544.007.5-.15.973-.414 1.384-.264.41-.763.536-1.14.794-.03.021-.041.054-.066.08-.551-.041-.963-.381-1.241-1.118ZM53.543 10.3c.69-.39 1.313.226 1.53.87.307.911-.19 1.38-.51 2.157-.005.013-.007.024-.01.037-1.583.058-2.836-2.037-1.01-3.064Zm21.914 8.131a33.969 33.969 0 0 1-6.534 1.076c-.137-.061-.267-.128-.399-.194.06-2.19-.64-4.425-.867-6.589-.174-1.67-.316-3.5-1.081-5.012-.99-1.956-3.003-4.708-5.423-3.439-2.898 1.521-.87 6.683.193 8.63 1.272 2.334 3.093 5.327 5.553 6.695a50.488 50.488 0 0 1-6.567-.329c-2.4-.827-3.689-3.103-4.984-5.177 1.372-.342 1.438-2.477.963-3.606-.629-1.497-2.05-2.13-3.5-1.481-1.646.732-2.117 2.787-1.157 4.273.416.643 1.103 1.135 1.854 1.223.456.055.852-.026 1.21-.205.194 1.29 1.065 2.395 1.888 3.345.44.507.937.97 1.485 1.342-3.408-.494-6.817-1.225-10.196-2.003-.014-1.554-.38-3.06-.287-4.64.096-1.622.257-3.23.214-4.859-.062-2.231-.82-4.927-3.063-5.79-4.803-1.844-4.796 4.828-3.826 7.86-.063 1.625 1.784 3.694 2.603 4.803a8.845 8.845 0 0 0 2.225 2.128c-3.068-.718-6.106-1.441-9.09-2.021a14.22 14.22 0 0 1-2.007-2.316c-.75-1.084-.986-2.242-1.358-3.424 2.558-.113 2.883-7.196-1.393-5.745-1.781.603-2.302 2.695-1.546 4.338.373.81 1.385 1.638 2.237 1.54-.01 1.156.664 2.392 1.21 3.295a9.253 9.253 0 0 0 1.733 2.1c-2.2-.4-4.533-.7-6.904-.83-.102-.066-.203-.13-.304-.197-.49-3.455.416-8.085-1.991-10.908-1.27-1.49-4.107-3.569-5.745-1.334-1.62 2.213-.103 5.001 1.153 6.996 1.381 2.194 3.181 4.124 5.375 5.381a39.473 39.473 0 0 0-6.045.303c-.753-.437-1.512-.86-2.254-1.315-1.095-.67-2.036-1.529-3.067-2.283.318-.43.54-.947.691-1.452.57-1.895.06-4.26-2.122-4.51-1.106-.127-2.353.395-2.952 1.372-.58.941-.288 2.18.168 3.1.264.532.665.995 1.118 1.323.004.052.014.1.034.147.371.885 1.379 1.187 2.192.78a2.3 2.3 0 0 0 .553-.392c1.05 1.614 2.88 2.598 4.674 3.37-2.028.329-4.002.851-5.86 1.608C12.14 10.02 5.774 7.739.48 7.722c-.265-.001-.432.216-.456.47-.514 5.7 6.881 8.782 11.931 8.316-2.659 1.472-4.99 3.543-6.786 6.37a1.993 1.993 0 0 0-.903-.516c-1.09-.281-2.364.452-2.984 1.345-.716 1.032-.596 2.477.232 3.409.774.871 2.065.528 2.855-.106.874-.703 1.372-1.795 1.177-2.936a.314.314 0 0 0-.046-.123.173.173 0 0 0 .003-.028.462.462 0 0 0 .147-.096c1.68-1.623 3.312-3.037 4.992-4.236-2.726 2.693-5.378 6.567-3.874 9.831 1.832 3.981 5.774.844 5.998-2.467.01-.123-.095-.176-.192-.166.216-1.1.261-2.256.372-3.35a31.92 31.92 0 0 1 .69-4.112c.157-.66.415-1.241.539-1.873 2.047-1.028 4.247-1.765 6.743-2.195-.74.537-1.326 1.234-1.849 2.07-.49.782-1.11 1.925-1.362 2.995a2.133 2.133 0 0 0-.265-.016c-.877.016-1.598.609-2.06 1.337-1.027 1.614-.17 3.564 1.702 3.826 1.536.217 2.527-1.2 2.69-2.625.086-.75-.197-1.517-.713-1.818a1.81 1.81 0 0 0-.427-.39c.303-.653.487-1.413.717-2.027.545-1.442 1.291-2.685 2.57-3.511.45-.062.909-.111 1.377-.154 4.837-.433 9.72.31 14.507 1.298-4.947.356-11.286 5.245-8.849 10.23 1.322 2.702 4.62 1 5.95-.577 2.445-2.901 3.098-6.89 6.448-8.886l1.787.398c1.641.365 3.313.753 5 1.137-1.116 1.056-2.19 2.444-2.64 3.946a2.369 2.369 0 0 0-.94-.19c-1.56-.002-3.014 1.368-2.915 3.017.109 1.815 1.78 2.39 3.24 1.743.617-.273 1.219-.774 1.426-1.457a1.383 1.383 0 0 0-.027-.92c.214-.449.238-.93-.008-1.473a1.319 1.319 0 0 0-.207-.311c.336-.51.6-1.06.89-1.624a14.134 14.134 0 0 1 1.75-2.6c3.529.795 7.133 1.55 10.74 1.977l-.074.126c-2.108 1.258-4.142 3.062-4.998 5.424-.704 1.945-.377 5.09 1.94 5.736 1.866.516 3.197-2.416 3.768-3.719 1.085-2.48 1.516-4.783.957-7.407a43.69 43.69 0 0 0 5.707.157c-.636.842-1.054 1.799-1.336 2.875-.156.592-.281 1.312-.246 1.993a2.62 2.62 0 0 0-.542.355c-1.146.977-1.782 2.89-.92 4.26.994 1.58 3.345 1.426 4.182-.195.503-.973.43-2.137-.08-3.029-.038-.669-.551-1.267-1.174-1.505-.067-.024-.133-.04-.2-.057.03-.51.038-1.024.108-1.5.165-1.12.562-2.22 1.067-3.23 2.739-.178 5.445-.676 8.082-1.625.533-.192.322-1.033-.235-.881Z" fill="#8E9892" fill-opacity=".7"/></svg>