<svg width="46" height="30" viewBox="0 0 46 30" fill="none" xmlns="http://www.w3.org/2000/svg">
<path d="M43.125 12.5H2.875C1.56332 12.5 0.5 13.5633 0.5 14.875V15.125C0.5 16.4367 1.56332 17.5 2.875 17.5H43.125C44.4367 17.5 45.5 16.4367 45.5 15.125V14.875C45.5 13.5633 44.4367 12.5 43.125 12.5Z"/>
<path d="M43.125 25H2.875C1.56332 25 0.5 26.0633 0.5 27.375V27.625C0.5 28.9367 1.56332 30 2.875 30H43.125C44.4367 30 45.5 28.9367 45.5 27.625V27.375C45.5 26.0633 44.4367 25 43.125 25Z"/>
<path d="M43.125 0H2.875C1.56332 0 0.5 1.06332 0.5 2.375V2.625C0.5 3.93668 1.56332 5 2.875 5H43.125C44.4367 5 45.5 3.93668 45.5 2.625V2.375C45.5 1.06332 44.4367 0 43.125 0Z"/>
</svg>
