<svg width="16" height="20" viewBox="0 0 16 20" fill="none" xmlns="http://www.w3.org/2000/svg">
<path d="M4.56248 0.504503L3.70208 0.763703C2.93597 0.994738 2.2518 1.43981 1.73011 2.04655C1.20841 2.65328 0.87089 3.39642 0.757277 4.1885C0.400877 6.6701 1.19768 9.5717 3.11888 12.8993C5.03528 16.2185 7.14488 18.3569 9.46688 19.2929C10.2129 19.5936 11.0297 19.6737 11.82 19.5237C12.6102 19.3738 13.3408 19 13.9249 18.4469L14.5753 17.8301C14.9976 17.4304 15.2605 16.8909 15.315 16.312C15.3695 15.7331 15.212 15.154 14.8717 14.6825L13.2445 12.4265C13.0245 12.1219 12.7147 11.8938 12.3585 11.7742C12.0024 11.6545 11.6177 11.6493 11.2585 11.7593L8.79728 12.5117L8.73368 12.5237C8.46248 12.5633 7.83608 11.9765 7.05608 10.6253C6.24008 9.2117 6.07208 8.3849 6.29648 8.1713L7.54808 7.0037C8.00577 6.57706 8.31842 6.01783 8.44217 5.40448C8.56591 4.79114 8.49455 4.15443 8.23808 3.5837L7.44368 1.8185C7.2048 1.28731 6.78091 0.861117 6.25103 0.619358C5.72115 0.377599 5.12143 0.336778 4.56368 0.504503H4.56248ZM6.35048 2.3105L7.14248 4.0757C7.29672 4.41798 7.33985 4.79998 7.26581 5.16804C7.19177 5.53609 7.00428 5.8717 6.72968 6.1277L5.47448 7.2965C4.67168 8.0573 4.93808 9.3557 6.01808 11.2253C7.03328 12.9845 7.95968 13.8533 8.95568 13.7021L9.10448 13.6709L11.6101 12.9065C11.7298 12.8697 11.8581 12.8713 11.9769 12.9112C12.0957 12.951 12.1991 13.027 12.2725 13.1285L13.8997 15.3845C14.0701 15.6202 14.149 15.9099 14.1219 16.1995C14.0947 16.4891 13.9633 16.7589 13.7521 16.9589L13.1005 17.5757C12.6833 17.9705 12.1615 18.2373 11.5972 18.3443C11.0328 18.4513 10.4496 18.394 9.91688 18.1793C7.87928 17.3585 5.95328 15.4061 4.15928 12.2993C2.36048 9.1853 1.63208 6.5369 1.94528 4.3589C2.02635 3.79302 2.26742 3.26208 2.6401 2.8286C3.01278 2.39512 3.50156 2.07714 4.04888 1.9121L4.90928 1.6529C5.18823 1.56908 5.48814 1.58958 5.75309 1.71057C6.01804 1.83157 6.22994 2.0448 6.34928 2.3105H6.35048Z" fill="black"/>
</svg>
