<svg width="18" height="14" viewBox="0 0 18 14" fill="none" xmlns="http://www.w3.org/2000/svg">
<path d="M16.875 0H1.125C0.826631 0 0.540483 0.122916 0.329505 0.341709C0.118526 0.560501 0 0.857247 0 1.16667V12.8333C0 13.1428 0.118526 13.4395 0.329505 13.6583C0.540483 13.8771 0.826631 14 1.125 14H16.875C17.1734 14 17.4595 13.8771 17.6705 13.6583C17.8815 13.4395 18 13.1428 18 12.8333V1.16667C18 0.857247 17.8815 0.560501 17.6705 0.341709C17.4595 0.122916 17.1734 0 16.875 0ZM16.0087 12.8333H2.05875L5.99625 8.61L5.18625 7.79917L1.125 12.1567V2.05333L8.11687 9.26917C8.32766 9.48646 8.61279 9.60843 8.91 9.60843C9.20721 9.60843 9.49234 9.48646 9.70312 9.26917L16.875 1.8725V12.0808L12.735 7.7875L11.9419 8.61L16.0087 12.8333ZM1.86187 1.16667H15.9637L8.91 8.44083L1.86187 1.16667Z" fill="black"/>
</svg>
