<svg width="20" height="24" viewBox="0 0 20 24" fill="none" xmlns="http://www.w3.org/2000/svg">
<path d="M10.1115 0H10.0372L0 0.985337V18.3695L10.0372 24L20 18.3695V0.985337L10.1115 0ZM18.5874 8.51613L10.0372 3.73021V3.65982H9.96283L9.88848 3.58944V3.65982L1.41264 8.51613V2.18182L9.96283 1.33724L18.5874 2.18182V8.51613ZM9.96283 4.78592L18.513 9.50147L15.1673 11.3314L9.88848 8.37537V9.3607L14.2751 11.824L13.6059 12.176L9.88848 10.0645V11.0499L12.7138 12.6686L12.119 13.0205L9.88848 11.7537V12.739L11.3011 13.5132L9.96283 14.2874L1.48699 9.57185L9.96283 4.78592ZM1.41264 10.6276L9.88848 15.4135V16.1173L4.01487 12.8094V13.7947L9.96283 17.173V17.9472L4.01487 14.6393V15.6246L9.96283 19.0029L15.9851 15.5543V11.8944L18.513 10.4868V17.5249L9.96283 22.3812L1.41264 17.5953V10.6276Z" fill="black"/>
</svg>
