<svg width="16" height="24" viewBox="0 0 16 24" fill="none" xmlns="http://www.w3.org/2000/svg">
<path d="M13.4869 5.97864C12.2469 3.87777 10.4866 2.13181 8.37561 0.909113L8.00005 0.691895L7.62449 0.909113C5.47759 2.14812 3.69488 3.93071 2.45573 6.07753C1.21658 8.22434 0.564695 10.6597 0.565675 13.1384C0.565675 13.2999 0.568488 13.4639 0.573972 13.6259C0.648597 15.8223 1.48855 17.6704 3.00303 18.9705C4.16197 19.9654 5.64857 20.5728 7.25024 20.7177V23.3083H8.75024V11.3083H7.25005V19.2081C4.7158 18.9145 2.1935 17.1243 2.07299 13.5749C2.06802 13.4298 2.06549 13.283 2.06549 13.1384C2.06995 10.9981 2.61657 8.89377 3.65433 7.02185C4.6921 5.14992 6.18718 3.57141 8.00005 2.43363C9.81289 3.57144 11.3079 5.14995 12.3457 7.02188C13.3834 8.8938 13.93 10.9981 13.9344 13.1384C13.9344 13.283 13.9319 13.4298 13.9269 13.575C13.8306 16.4143 12.1969 18.1278 10.2499 18.8501V20.4376C11.2602 20.1512 12.1972 19.6509 12.9971 18.9704C14.5115 17.6703 15.3515 15.8222 15.4261 13.6259C15.4316 13.4639 15.4344 13.2999 15.4344 13.1384C15.4358 10.6208 14.7633 8.14868 13.4869 5.97864Z" fill="black"/>
</svg>
