<svg width="65" height="36" viewBox="0 0 65 36" fill="none" xmlns="http://www.w3.org/2000/svg">
<path d="M9.47922 31.2C8.86589 31.2 8.50589 30.8933 8.39922 30.28C8.26589 29.2667 8.19922 28.3067 8.19922 27.4C8.11922 25.3467 8.05255 23.2133 7.99922 21C7.97255 18.76 7.95922 17.1333 7.95922 16.12C7.37255 16.3867 6.90589 16.76 6.55922 17.24C6.23922 17.6933 5.93255 18.28 5.63922 19C5.15922 20.3067 4.91922 21.6 4.91922 22.88V23.88C4.91922 24.04 4.90589 24.5333 4.87922 25.36C4.85255 26.1867 4.77255 27.0933 4.63922 28.08C4.47922 29.4133 3.81255 30.4133 2.63922 31.08C2.45255 31.1867 2.21255 31.24 1.91922 31.24C1.57255 31.24 1.27922 31.16 1.03922 31C0.825886 30.8133 0.759219 30.56 0.839219 30.24C0.892552 30.0533 0.972552 29.92 1.07922 29.84C1.18589 29.76 1.33255 29.68 1.51922 29.6C1.73255 29.52 1.89255 29.44 1.99922 29.36C2.39922 28.9867 2.59922 28.48 2.59922 27.84L2.63922 24.48C2.69255 23.1733 2.75922 22.1733 2.83922 21.48C2.91922 20.76 3.11922 19.9333 3.43922 19C3.54589 18.6533 3.79922 18.1067 4.19922 17.36C4.59922 16.5867 4.89255 16.0933 5.07922 15.88C3.66589 15.1867 2.67922 14.32 2.11922 13.28C1.58589 12.24 1.31922 10.72 1.31922 8.72C1.31922 7.14666 1.59922 5.6 2.15922 4.08C2.71922 2.58667 3.63922 1.64 4.91922 1.24L6.67922 0.639997C6.91922 0.533332 7.18589 0.48 7.47922 0.48C8.03922 0.48 8.67922 0.719999 9.39922 1.2C9.85255 1.46667 10.0792 1.90667 10.0792 2.52C9.91922 4.76 9.83922 6.45333 9.83922 7.6V9.08V12.36V16.48C9.83922 19.3067 9.86589 21.44 9.91922 22.88C9.94589 23.9733 9.98589 24.9467 10.0392 25.8C10.0926 26.6533 10.1326 27.36 10.1592 27.92L10.2792 30.12V30.36C10.2792 30.7067 10.2259 30.9333 10.1192 31.04C10.0126 31.1467 9.79922 31.2 9.47922 31.2ZM7.79922 2.16C7.66589 2.21333 7.35922 2.32 6.87922 2.48C6.42589 2.64 6.02589 2.82667 5.67922 3.04C5.27922 3.22667 4.90589 3.62667 4.55922 4.24C4.23922 4.82667 3.98589 5.45333 3.79922 6.12C3.61255 6.78667 3.53255 7.29333 3.55922 7.64L3.63922 9.4C3.63922 10.2267 3.65255 10.88 3.67922 11.36C3.70589 12.1067 3.91922 12.7333 4.31922 13.24C4.74589 13.72 5.33255 14.0533 6.07922 14.24C6.37255 14.32 6.70589 14.44 7.07922 14.6C7.47922 14.7333 7.77255 14.84 7.95922 14.92L7.79922 2.16ZM15.4367 31.32C15.4101 31.2133 15.3567 31.0267 15.2767 30.76C15.2234 30.4933 15.2101 30.2667 15.2367 30.08C15.2901 26.9867 15.3701 24.68 15.4767 23.16C15.5034 22.6 15.5167 21.7733 15.5167 20.68C15.5167 18.7067 15.4234 16.32 15.2367 13.52C15.0767 10.1067 14.9967 7.52 14.9967 5.76C14.9967 5.36 15.1567 5 15.4767 4.68C15.7967 4.36 16.1834 4.2 16.6367 4.2C18.1567 4.2 19.4767 4.32 20.5967 4.56C21.1301 4.66667 21.4767 4.85333 21.6367 5.12C21.7967 5.36 21.8501 5.77333 21.7967 6.36C21.4234 6.6 21.0367 6.72 20.6367 6.72C20.5034 6.72 20.3034 6.69333 20.0367 6.64C19.7967 6.58667 19.1567 6.53333 18.1167 6.48H18.0367C17.6634 6.48 17.4767 6.68 17.4767 7.08C17.3434 10.9467 17.2767 13.1467 17.2767 13.68C17.3301 16.4533 17.3834 18.5467 17.4367 19.96C17.4367 20.1467 17.4501 20.3733 17.4767 20.64C17.5034 20.9067 17.5034 21.1333 17.4767 21.32C17.3967 22.5467 17.3567 23.84 17.3567 25.2C17.3567 27.4133 17.3967 28.96 17.4767 29.84C17.4501 30.4267 17.3567 30.8267 17.1967 31.04C17.0367 31.28 16.7434 31.4 16.3167 31.4C16.2101 31.4 15.9167 31.3733 15.4367 31.32ZM29.2098 31.76C28.5165 31.76 27.8765 31.5333 27.2898 31.08C26.7032 30.6533 26.2232 30.0667 25.8498 29.32C25.0765 27.6933 24.5965 25.92 24.4098 24C24.1698 22.1867 24.0498 20.44 24.0498 18.76C24.0498 18.44 24.0632 18.1733 24.0898 17.96V17.24C24.0898 17.1067 24.0765 17.04 24.0498 17.04V16.32L24.0898 13.52C24.1165 12.6667 24.2232 11.3067 24.4098 9.44C24.5432 8.16 24.8498 6.92 25.3298 5.72C25.5165 5.18667 25.7565 4.78667 26.0498 4.52C26.3432 4.22666 26.6765 4.08 27.0498 4.08C28.1165 4.08 29.0765 4.28 29.9298 4.68C30.7832 5.05333 31.5032 5.58666 32.0898 6.28C32.6232 6.94666 33.0765 7.77333 33.4498 8.76C33.8232 9.72 34.0898 10.7467 34.2498 11.84C34.4098 12.96 34.4898 14.1467 34.4898 15.4V15.72C34.4898 16.5467 34.5032 17.2933 34.5298 17.96L34.5698 20.24C34.5698 27.92 32.7832 31.76 29.2098 31.76ZM29.0498 30.08C29.5298 30.08 29.9698 29.8933 30.3698 29.52C30.7698 29.12 31.0765 28.5867 31.2898 27.92C31.7965 26.56 32.1032 25.0933 32.2098 23.52C32.3432 22.16 32.4098 20.9867 32.4098 20C32.4098 18.8 32.3165 17.2267 32.1298 15.28C31.9698 13.2267 31.8898 11.6933 31.8898 10.68V9.96C31.8365 8.94667 31.4898 8.06667 30.8498 7.32C30.2365 6.57333 29.4765 6.2 28.5698 6.2C27.6632 6.2 27.0632 6.72 26.7698 7.76C26.5032 8.58667 26.3698 9.65333 26.3698 10.96C26.3698 11.4667 26.3832 11.8933 26.4098 12.24V13.32L26.3298 15.16C26.2765 15.72 26.2498 16.3333 26.2498 17C26.2498 18.44 26.2898 19.8667 26.3698 21.28C26.4765 23.28 26.7432 25.2267 27.1698 27.12C27.5965 29.0933 28.2232 30.08 29.0498 30.08ZM52.893 35.92C52.6796 35.9733 52.5196 36 52.413 36C52.093 36 51.8663 35.8 51.733 35.4C51.6263 35.08 51.573 34.68 51.573 34.2L51.613 31.44C51.613 31.28 51.5996 31.1333 51.573 31C51.5463 30.8667 51.5196 30.7333 51.493 30.6H46.893C47.1596 30.6 46.5196 30.7333 44.973 31C43.453 31.24 42.2663 31.4 41.413 31.48L39.613 31.64L37.613 31.84C37.613 32.08 37.613 32.3733 37.613 32.72C37.6396 33.0667 37.6396 33.48 37.613 33.96V34.16C37.613 34.5867 37.5063 34.9067 37.293 35.12C37.0796 35.3333 36.8796 35.44 36.693 35.44C36.5863 35.44 36.4263 35.3867 36.213 35.28C35.733 34.9333 35.4663 34.4533 35.413 33.84L35.293 30.92C35.2396 29.88 35.6663 29.36 36.573 29.36C37.0796 29.3333 37.4796 29.2 37.773 28.96C38.0663 28.72 38.413 28.3467 38.813 27.84C39.213 27.3067 39.5196 26.72 39.733 26.08C39.973 25.4133 40.1996 24.6133 40.413 23.68C40.653 22.6667 40.8263 21.68 40.933 20.72C41.0396 19.76 41.173 18.3867 41.333 16.6C41.573 13.8 41.693 10.9867 41.693 8.16L41.653 5.92C41.653 5.41333 41.7996 5 42.093 4.68C42.3863 4.33333 42.7863 4.16 43.293 4.16C43.453 4.16 43.573 4.17333 43.653 4.2C44.8796 4.41333 45.8796 4.54666 46.653 4.6H46.853C47.1996 4.6 47.3996 4.53333 47.453 4.4C47.693 4.08 47.9863 3.92 48.333 3.92C48.573 3.92 48.7863 3.97333 48.973 4.08C49.3996 4.24 49.6796 4.64 49.813 5.28L49.613 12.12C49.613 15.8267 49.6263 18.6 49.653 20.44C49.653 21.4 49.6796 22.8667 49.733 24.84L49.773 27.04C49.773 27.2533 49.7863 27.4533 49.813 27.64C49.8396 27.8267 49.8663 28.0133 49.893 28.2C50.4263 28.2533 50.8263 28.28 51.093 28.28C51.3063 28.28 51.4663 28.2667 51.573 28.24C52.1596 28.16 52.6796 28.3067 53.133 28.68C53.613 29.0267 53.853 29.48 53.853 30.04C53.853 30.76 53.7996 31.84 53.693 33.28C53.693 33.6533 53.6663 34.1867 53.613 34.88C53.5596 35.44 53.3196 35.7867 52.893 35.92ZM41.373 29.56C42.8663 29.4267 44.0396 29.3067 44.893 29.2C45.773 29.0667 46.6396 28.8667 47.493 28.6C47.7596 25.3733 47.893 21.92 47.893 18.24C47.893 14.8267 47.7596 11.08 47.493 7C46.7996 6.97333 45.5063 6.90667 43.613 6.8L43.573 8.68C43.3596 12.7867 43.213 15.8533 43.133 17.88C43.0263 20.92 42.5063 23.9067 41.573 26.84C41.5196 27 41.3996 27.4 41.213 28.04C41.053 28.6533 40.7996 29.1867 40.453 29.64L41.373 29.56ZM64.1677 31.36C63.5543 31.36 63.101 31.2667 62.8077 31.08C62.5143 30.8933 62.3677 30.5467 62.3677 30.04C62.3677 29.24 62.2343 27.88 61.9677 25.96L61.8077 25.12L57.8477 24.52C57.6877 25.1333 57.461 26.3733 57.1677 28.24C57.0077 29.5467 56.7543 30.4133 56.4077 30.84C56.221 31.08 55.9543 31.2 55.6077 31.2C55.2877 31.2 54.9943 31.1067 54.7277 30.92C54.461 30.7067 54.3277 30.4533 54.3277 30.16L54.4077 29.96L54.4477 29.8C56.2077 22.9467 57.541 16.1867 58.4477 9.52C58.4477 9.41333 58.461 9.24 58.4877 9C58.5143 8.73333 58.541 8.36 58.5677 7.88C58.6477 6.89333 58.7277 6.10667 58.8077 5.52C58.9143 4.93333 59.0743 4.49333 59.2877 4.2H60.6477C61.021 4.2 61.341 4.29333 61.6077 4.48C61.8743 4.64 62.0077 4.88 62.0077 5.2C62.0077 7.22667 62.2877 10.24 62.8477 14.24C63.381 18.3467 63.6477 21.2267 63.6477 22.88C63.6477 23.04 63.7143 23.4533 63.8477 24.12C63.981 24.7333 64.0477 25.1333 64.0477 25.32C64.0477 25.5067 64.181 26.3067 64.4477 27.72C64.6877 29 64.8077 29.8267 64.8077 30.2V30.24C64.8077 30.8267 64.5943 31.2 64.1677 31.36ZM61.5277 23.68C61.4477 23.28 61.4077 22.7867 61.4077 22.2C61.4077 19.8 61.1943 16.7333 60.7677 13L60.3677 8.84C59.221 15.1067 58.4343 19.84 58.0077 23.04C58.4077 23.3067 59.581 23.52 61.5277 23.68Z" fill="#0F805D"/>
</svg>
