<svg width="32" height="32" viewBox="0 0 32 32" fill="none" xmlns="http://www.w3.org/2000/svg">
<circle cx="16" cy="16" r="15.5" stroke="#0F805D"/>
<path d="M23.1562 7.81204C22.9837 7.66906 22.7757 7.57542 22.5543 7.54106C22.3329 7.50669 22.1063 7.53288 21.8986 7.61684L7.56501 13.4032C7.33339 13.4984 7.13619 13.6618 6.9996 13.8717C6.86301 14.0816 6.79349 14.328 6.80026 14.5784C6.80703 14.8287 6.88977 15.071 7.03751 15.2732C7.18524 15.4754 7.39098 15.6279 7.62741 15.7104L10.7202 16.784L12.3962 22.3248C12.3994 22.336 12.4098 22.3432 12.4146 22.3536C12.4319 22.3978 12.4571 22.4385 12.489 22.4736C12.5375 22.5278 12.6001 22.5674 12.6698 22.588C12.6778 22.5912 12.6834 22.5984 12.6914 22.6H12.6962L12.6986 22.6008C12.7605 22.6142 12.8248 22.6108 12.885 22.5912C12.8914 22.5896 12.8978 22.5896 12.905 22.5872C12.9628 22.567 13.0151 22.5336 13.0578 22.4896C13.0626 22.484 13.0706 22.4832 13.0754 22.4784L15.4858 19.8176L19.0034 22.5416C19.217 22.7088 19.4802 22.7992 19.7514 22.7992C20.3386 22.7992 20.845 22.388 20.9658 21.8144L23.5754 9.00004C23.6197 8.7825 23.6041 8.55703 23.5302 8.34766C23.4564 8.1383 23.3271 7.9529 23.1562 7.81124V7.81204ZM13.2706 17.836L12.705 20.5856L11.525 16.6832L17.377 13.6352L13.3794 17.6336C13.3241 17.689 13.2862 17.7594 13.2706 17.836ZM20.1818 21.6536C20.1668 21.7262 20.1334 21.7936 20.0848 21.8495C20.0361 21.9054 19.974 21.9479 19.9042 21.9728C19.8362 21.999 19.7624 22.0071 19.6903 21.9961C19.6182 21.9852 19.5502 21.9556 19.493 21.9104L15.6826 18.9592C15.603 18.8978 15.5031 18.8685 15.4028 18.8774C15.3026 18.8863 15.2094 18.9327 15.1418 19.0072L13.4642 20.856L14.029 18.1144L19.7802 12.3624C19.8476 12.2949 19.8885 12.2054 19.8958 12.1103C19.903 12.0152 19.8759 11.9206 19.8196 11.8436C19.7632 11.7667 19.6811 11.7124 19.5882 11.6906C19.4954 11.6688 19.3977 11.681 19.313 11.7248L11.0226 16.0432L7.88901 14.9536C7.80593 14.9262 7.73346 14.8735 7.6817 14.803C7.62994 14.7325 7.60146 14.6475 7.60021 14.56C7.59623 14.4718 7.61981 14.3845 7.66769 14.3102C7.71557 14.236 7.78537 14.1784 7.86741 14.1456L22.1986 8.35924C22.2721 8.32804 22.3527 8.31795 22.4316 8.3301C22.5105 8.34226 22.5844 8.37618 22.645 8.42804C22.7053 8.47683 22.7509 8.54142 22.7766 8.6146C22.8023 8.68778 22.8071 8.76666 22.7906 8.84244L20.1818 21.6544V21.6536Z" fill="#0F805D"/>
</svg>
