<svg viewBox="0 0 20 20" fill="none" xmlns="http://www.w3.org/2000/svg">
<path d="M18.1561 2.81204C17.9836 2.66906 17.7756 2.57542 17.5542 2.54106C17.3328 2.50669 17.1062 2.53288 16.8985 2.61684L2.56489 8.40324C2.33327 8.49843 2.13607 8.6618 1.99948 8.87169C1.86289 9.08158 1.79336 9.32804 1.80013 9.57837C1.8069 9.8287 1.88965 10.071 2.03739 10.2732C2.18512 10.4754 2.39086 10.6279 2.62729 10.7104L5.72009 11.784L7.39609 17.3248C7.39929 17.336 7.40969 17.3432 7.41449 17.3536C7.43176 17.3978 7.45698 17.4385 7.48889 17.4736C7.53738 17.5278 7.59998 17.5674 7.66969 17.588C7.67769 17.5912 7.68329 17.5984 7.69129 17.6H7.69609L7.69849 17.6008C7.76038 17.6142 7.8247 17.6108 7.88489 17.5912C7.89129 17.5896 7.89769 17.5896 7.90489 17.5872C7.96269 17.567 8.01499 17.5336 8.05769 17.4896C8.06249 17.484 8.07049 17.4832 8.07529 17.4784L10.4857 14.8176L14.0033 17.5416C14.2169 17.7088 14.4801 17.7992 14.7513 17.7992C15.3385 17.7992 15.8449 17.388 15.9657 16.8144L18.5753 4.00004C18.6196 3.7825 18.6039 3.55703 18.5301 3.34766C18.4563 3.1383 18.327 2.9529 18.1561 2.81124V2.81204ZM8.27049 12.836L7.70489 15.5856L6.52489 11.6832L12.3769 8.63524L8.37929 12.6336C8.32393 12.689 8.28609 12.7594 8.27049 12.836ZM15.1817 16.6536C15.1667 16.7262 15.1333 16.7936 15.0846 16.8495C15.036 16.9054 14.9738 16.9479 14.9041 16.9728C14.836 16.999 14.7623 17.0071 14.6902 16.9961C14.6181 16.9852 14.5501 16.9556 14.4929 16.9104L10.6825 13.9592C10.6028 13.8978 10.5029 13.8685 10.4027 13.8774C10.3025 13.8863 10.2093 13.9327 10.1417 14.0072L8.46409 15.856L9.02889 13.1144L14.7801 7.36244C14.8474 7.29487 14.8884 7.20545 14.8956 7.11031C14.9029 7.01518 14.8758 6.9206 14.8194 6.84364C14.763 6.76669 14.681 6.71242 14.5881 6.69063C14.4952 6.66885 14.3976 6.68098 14.3129 6.72484L6.02249 11.0432L2.88889 9.95364C2.80581 9.9262 2.73334 9.87355 2.68158 9.803C2.62982 9.73246 2.60133 9.64753 2.60009 9.56004C2.5961 9.47178 2.61969 9.38446 2.66757 9.31021C2.71545 9.23595 2.78525 9.17844 2.86729 9.14564L17.1985 3.35924C17.2719 3.32804 17.3526 3.31795 17.4315 3.3301C17.5103 3.34226 17.5843 3.37618 17.6449 3.42804C17.7052 3.47683 17.7507 3.54142 17.7764 3.6146C17.8022 3.68778 17.807 3.76666 17.7905 3.84244L15.1817 16.6544V16.6536Z"/>
</svg>
