<svg viewBox="0 0 20 16" fill="none" xmlns="http://www.w3.org/2000/svg">
<g clip-path="url(#clip0_423_1476)">
<path d="M1.40002 5.17579C1.40002 4.67283 1.74319 4.40163 2.42952 4.36218L5.07427 4.37697C5.25177 4.37697 5.3701 4.45094 5.42927 4.59887C5.70143 5.33851 6.00614 5.97707 6.34339 6.51455C6.68064 7.05202 7.12143 7.67086 7.66576 8.37106C7.7131 8.45981 7.79001 8.50419 7.89651 8.50419C7.97934 8.50419 8.04443 8.46967 8.09176 8.40064L8.14501 8.23792L8.16276 5.67875C8.16276 5.50123 8.11247 5.38289 8.01189 5.32372C7.9113 5.26455 7.72493 5.22017 7.45276 5.19058C7.23976 5.161 7.13326 5.05251 7.13326 4.86514C7.13326 4.82569 7.13918 4.7961 7.15101 4.77638C7.39951 4.13535 8.10951 3.81484 9.28101 3.81484L10.275 3.80005C10.7247 3.80005 11.0974 3.89374 11.3933 4.08111C11.6891 4.26849 11.837 4.56435 11.837 4.96869V8.32668C11.9198 8.37599 11.9968 8.40064 12.0678 8.40064C12.2453 8.40064 12.3991 8.31188 12.5293 8.13437C13.8309 6.61563 14.535 5.59985 14.6415 5.08703C14.6415 5.07717 14.6533 5.05251 14.677 5.01307C14.7598 4.86514 14.8959 4.73693 15.0852 4.62845C15.2746 4.51997 15.4402 4.44601 15.5822 4.40656C15.6296 4.38683 15.6828 4.37697 15.742 4.37697H18.4932L18.6707 4.39176C18.9074 4.39176 19.0908 4.48545 19.221 4.67283C19.2683 4.732 19.3009 4.7961 19.3186 4.86514C19.3364 4.93417 19.3482 5.0032 19.3541 5.07224C19.36 5.14127 19.363 5.18072 19.363 5.19058V5.29413C19.2802 5.69847 19.0701 6.12993 18.7329 6.58851C18.3956 7.04709 17.9667 7.54265 17.446 8.0752C16.9253 8.60774 16.5999 8.95784 16.4697 9.12549C16.3632 9.24384 16.31 9.35232 16.31 9.45094C16.31 9.52983 16.3573 9.61859 16.452 9.71721L19.0435 12.4391C19.1855 12.5969 19.2565 12.7695 19.2565 12.9569C19.2565 13.1837 19.15 13.3711 18.937 13.519C18.724 13.6669 18.4696 13.7507 18.1737 13.7705L17.872 13.7853H15.174C15.1622 13.7853 15.1385 13.7877 15.103 13.7927C15.0675 13.7976 15.0438 13.8 15.032 13.8C14.7717 13.8 14.5291 13.7064 14.3042 13.519C14.2214 13.4401 13.6652 12.8582 12.6358 11.7734C12.5766 11.7044 12.4938 11.6403 12.3873 11.5811C12.3399 11.7389 12.2778 11.9657 12.2009 12.2616C12.124 12.5574 12.0678 12.7695 12.0323 12.8977L11.979 13.1492C11.8607 13.4943 11.6122 13.7014 11.2335 13.7705L10.985 13.7853H9.24551C8.26334 13.7853 7.28414 13.4105 6.30789 12.661C5.33164 11.9115 4.45302 10.9426 3.67202 9.75419C2.89102 8.56583 2.16327 7.18269 1.48877 5.60478C1.42961 5.47658 1.40002 5.33358 1.40002 5.17579ZM12.0678 9.00715C11.8193 9.00715 11.5944 8.95044 11.3933 8.83703C11.1921 8.72362 11.0915 8.56829 11.0915 8.37106V4.96869C11.0915 4.77145 11.0323 4.63092 10.914 4.54709C10.7957 4.46326 10.5886 4.42135 10.2928 4.42135L9.28101 4.45094C8.77218 4.45094 8.38759 4.5249 8.12726 4.67283C8.64793 4.87993 8.90826 5.21524 8.90826 5.67875V8.2823C8.88459 8.52885 8.76626 8.73348 8.55326 8.8962C8.34026 9.05892 8.10359 9.14029 7.84326 9.14029C7.48826 9.14029 7.2161 8.99729 7.02676 8.71129C6.10377 7.54758 5.41743 6.44305 4.96777 5.39768L4.80802 5.01307L2.44727 4.99827C2.29344 4.99827 2.20765 5.00567 2.1899 5.02046C2.17215 5.03526 2.16327 5.07717 2.16327 5.1462C2.16327 5.23496 2.17511 5.32865 2.19877 5.42727L2.57152 6.25567C3.56552 8.39571 4.64531 10.0821 5.81089 11.3148C6.97647 12.5476 8.12134 13.164 9.24551 13.164H11.0205C11.0915 13.164 11.1448 13.1467 11.1803 13.1122C11.2158 13.0777 11.2453 13.0111 11.269 12.9125L11.3045 12.7645L11.6418 11.4628C11.7364 11.2853 11.8193 11.1669 11.8903 11.1077C12.0204 10.9993 12.1743 10.945 12.3518 10.945C12.6358 10.945 12.9257 11.088 13.2215 11.374L14.7302 12.9716C14.8249 13.0999 14.9255 13.164 15.032 13.164H17.9607C18.3157 13.164 18.4932 13.09 18.4932 12.9421C18.4932 12.8928 18.4755 12.8434 18.44 12.7941L15.8662 10.1166C15.6651 9.90952 15.5645 9.68762 15.5645 9.45094C15.5645 9.21425 15.6592 8.98743 15.8485 8.77046C16.0023 8.57322 16.3011 8.24532 16.7449 7.78674C17.1886 7.32816 17.5762 6.89916 17.9075 6.49975C18.2388 6.10034 18.4577 5.73792 18.5642 5.41247L18.6175 5.22017C18.6057 5.20044 18.5997 5.16839 18.5997 5.12401C18.5997 5.07963 18.5938 5.04265 18.582 5.01307H15.7952C15.6177 5.07224 15.4757 5.161 15.3692 5.27934L15.2627 5.5604C14.9669 6.24088 14.1918 7.29117 12.9375 8.71129C12.689 8.90853 12.3991 9.00715 12.0678 9.00715Z"/>
</g>
<defs>
<clipPath id="clip0_423_1476">
<rect width="19.2" height="15.0857" fill="white" transform="translate(0.400024 0.800049)"/>
</clipPath>
</defs>
</svg>
