<svg width="32" height="32" viewBox="0 0 32 32" fill="none" xmlns="http://www.w3.org/2000/svg">
<circle cx="16" cy="16" r="15.5" stroke="#0F805D"/>
<g clip-path="url(#clip0_20671_510)">
<path d="M7.3999 13.1755C7.3999 12.6726 7.74307 12.4014 8.4294 12.3619L11.0741 12.3767C11.2516 12.3767 11.37 12.4507 11.4291 12.5986C11.7013 13.3383 12.006 13.9768 12.3433 14.5143C12.6805 15.0518 13.1213 15.6706 13.6656 16.3708C13.713 16.4596 13.7899 16.5039 13.8964 16.5039C13.9792 16.5039 14.0443 16.4694 14.0916 16.4004L14.1449 16.2377L14.1626 13.6785C14.1626 13.501 14.1123 13.3826 14.0118 13.3235C13.9112 13.2643 13.7248 13.2199 13.4526 13.1903C13.2396 13.1608 13.1331 13.0523 13.1331 12.8649C13.1331 12.8254 13.1391 12.7959 13.1509 12.7761C13.3994 12.1351 14.1094 11.8146 15.2809 11.8146L16.2749 11.7998C16.7246 11.7998 17.0973 11.8935 17.3931 12.0809C17.689 12.2682 17.8369 12.5641 17.8369 12.9684V16.3264C17.9197 16.3757 17.9966 16.4004 18.0676 16.4004C18.2451 16.4004 18.399 16.3116 18.5291 16.1341C19.8308 14.6154 20.5349 13.5996 20.6414 13.0868C20.6414 13.0769 20.6532 13.0523 20.6769 13.0128C20.7597 12.8649 20.8958 12.7367 21.0851 12.6282C21.2745 12.5197 21.4401 12.4458 21.5821 12.4063C21.6295 12.3866 21.6827 12.3767 21.7419 12.3767H24.4931L24.6706 12.3915C24.9073 12.3915 25.0907 12.4852 25.2209 12.6726C25.2682 12.7318 25.3007 12.7959 25.3185 12.8649C25.3362 12.9339 25.3481 13.003 25.354 13.072C25.3599 13.141 25.3629 13.1805 25.3629 13.1903V13.2939C25.28 13.6982 25.07 14.1297 24.7327 14.5883C24.3955 15.0468 23.9665 15.5424 23.4459 16.075C22.9252 16.6075 22.5998 16.9576 22.4696 17.1252C22.3631 17.2436 22.3099 17.3521 22.3099 17.4507C22.3099 17.5296 22.3572 17.6183 22.4519 17.717L25.0434 20.4389C25.1854 20.5966 25.2564 20.7692 25.2564 20.9566C25.2564 21.1834 25.1499 21.3708 24.9369 21.5187C24.7239 21.6667 24.4695 21.7505 24.1736 21.7702L23.8719 21.785H21.1739C21.162 21.785 21.1384 21.7875 21.1029 21.7924C21.0674 21.7973 21.0437 21.7998 21.0319 21.7998C20.7715 21.7998 20.529 21.7061 20.3041 21.5187C20.2213 21.4398 19.6651 20.858 18.6356 19.7732C18.5765 19.7041 18.4936 19.64 18.3871 19.5809C18.3398 19.7387 18.2777 19.9655 18.2008 20.2613C18.1238 20.5572 18.0676 20.7692 18.0321 20.8974L17.9789 21.1489C17.8605 21.4941 17.612 21.7012 17.2334 21.7702L16.9849 21.785H15.2454C14.2632 21.785 13.284 21.4103 12.3078 20.6608C11.3315 19.9112 10.4529 18.9423 9.6719 17.7539C8.8909 16.5656 8.16315 15.1824 7.48865 13.6045C7.42949 13.4763 7.3999 13.3333 7.3999 13.1755ZM18.0676 17.0069C17.8191 17.0069 17.5943 16.9502 17.3931 16.8368C17.192 16.7234 17.0914 16.568 17.0914 16.3708V12.9684C17.0914 12.7712 17.0322 12.6307 16.9139 12.5468C16.7955 12.463 16.5885 12.4211 16.2926 12.4211L15.2809 12.4507C14.7721 12.4507 14.3875 12.5247 14.1271 12.6726C14.6478 12.8797 14.9081 13.215 14.9081 13.6785V16.2821C14.8845 16.5286 14.7661 16.7332 14.5531 16.896C14.3401 17.0587 14.1035 17.14 13.8431 17.14C13.4881 17.14 13.216 16.997 13.0266 16.711C12.1036 15.5473 11.4173 14.4428 10.9676 13.3974L10.8079 13.0128L8.44715 12.998C8.29332 12.998 8.20753 13.0054 8.18978 13.0202C8.17203 13.035 8.16315 13.0769 8.16315 13.146C8.16315 13.2347 8.17498 13.3284 8.19865 13.427L8.5714 14.2554C9.5654 16.3955 10.6452 18.0819 11.8108 19.3146C12.9763 20.5473 14.1212 21.1637 15.2454 21.1637H17.0204C17.0914 21.1637 17.1446 21.1465 17.1801 21.1119C17.2156 21.0774 17.2452 21.0109 17.2689 20.9122L17.3044 20.7643L17.6416 19.4625C17.7363 19.285 17.8191 19.1667 17.8901 19.1075C18.0203 18.999 18.1741 18.9448 18.3516 18.9448C18.6356 18.9448 18.9255 19.0878 19.2214 19.3738L20.7301 20.9714C20.8248 21.0996 20.9254 21.1637 21.0319 21.1637H23.9606C24.3156 21.1637 24.4931 21.0897 24.4931 20.9418C24.4931 20.8925 24.4754 20.8432 24.4399 20.7939L21.8661 18.1164C21.665 17.9093 21.5644 17.6874 21.5644 17.4507C21.5644 17.214 21.659 16.9872 21.8484 16.7702C22.0022 16.573 22.301 16.2451 22.7447 15.7865C23.1885 15.3279 23.576 14.8989 23.9074 14.4995C24.2387 14.1001 24.4576 13.7377 24.5641 13.4122L24.6174 13.2199C24.6055 13.2002 24.5996 13.1681 24.5996 13.1238C24.5996 13.0794 24.5937 13.0424 24.5819 13.0128H21.7951C21.6176 13.072 21.4756 13.1608 21.3691 13.2791L21.2626 13.5602C20.9668 14.2406 20.1917 15.2909 18.9374 16.711C18.6889 16.9083 18.399 17.0069 18.0676 17.0069Z" fill="#0F805D"/>
</g>
<defs>
<clipPath id="clip0_20671_510">
<rect width="19.2" height="15.0857" fill="white" transform="translate(6.3999 8.7998)"/>
</clipPath>
</defs>
</svg>
