<svg viewBox="0 0 20 20" fill="none" xmlns="http://www.w3.org/2000/svg">
<path d="M12.565 9.75249L8.96502 7.35249C8.91991 7.32244 8.86749 7.30518 8.81335 7.30254C8.7592 7.2999 8.70535 7.31198 8.65752 7.33749C8.60959 7.36243 8.56949 7.40016 8.54169 7.44649C8.51389 7.49283 8.49947 7.54596 8.50002 7.59999V12.4C8.49947 12.454 8.51389 12.5072 8.54169 12.5535C8.56949 12.5998 8.60959 12.6376 8.65752 12.6625C8.70168 12.6853 8.75034 12.6981 8.80002 12.7C8.8593 12.7011 8.91728 12.6826 8.96502 12.6475L12.565 10.2475C12.6069 10.2211 12.6413 10.1846 12.6652 10.1413C12.6891 10.0981 12.7016 10.0494 12.7016 9.99999C12.7016 9.95055 12.6891 9.90192 12.6652 9.85864C12.6413 9.81536 12.6069 9.77884 12.565 9.75249ZM9.10002 11.8375V8.16249L11.86 9.99999L9.10002 11.8375ZM17.6875 5.70999C17.6256 5.48132 17.5113 5.27016 17.3539 5.09316C17.1964 4.91615 16.9999 4.77814 16.78 4.68999C14.245 3.71499 10.1725 3.72999 10 3.72999C9.82752 3.72999 5.75502 3.71499 3.22002 4.68999C3.00011 4.77814 2.80368 4.91615 2.64619 5.09316C2.48871 5.27016 2.37449 5.48132 2.31252 5.70999C2.12502 6.43749 1.90002 7.77249 1.90002 9.99999C1.90002 12.2275 2.12502 13.5625 2.31252 14.29C2.37449 14.5187 2.48871 14.7298 2.64619 14.9068C2.80368 15.0838 3.00011 15.2218 3.22002 15.31C5.75502 16.285 9.82752 16.27 10 16.27H10.0525C10.57 16.27 14.3725 16.24 16.78 15.31C16.9999 15.2218 17.1964 15.0838 17.3539 14.9068C17.5113 14.7298 17.6256 14.5187 17.6875 14.29C17.875 13.5625 18.1 12.2275 18.1 9.99999C18.1 7.77249 17.875 6.43749 17.6875 5.70999ZM17.1025 14.14C17.0665 14.2765 16.9988 14.4026 16.905 14.5082C16.8112 14.6137 16.6939 14.6957 16.5625 14.7475C14.1325 15.685 10.045 15.67 10 15.67C9.95502 15.67 5.86752 15.685 3.43752 14.7475C3.30617 14.6957 3.18885 14.6137 3.09504 14.5082C3.00123 14.4026 2.93357 14.2765 2.89752 14.14C2.71752 13.4425 2.50002 12.16 2.50002 9.99999C2.50002 7.83999 2.71752 6.55749 2.89752 5.85999C2.93357 5.72347 3.00123 5.59735 3.09504 5.49181C3.18885 5.38628 3.30617 5.3043 3.43752 5.25249C5.86752 4.31499 9.95502 4.32999 10 4.32999C10.045 4.32999 14.1325 4.31499 16.5625 5.25249C16.6939 5.3043 16.8112 5.38628 16.905 5.49181C16.9988 5.59735 17.0665 5.72347 17.1025 5.85999C17.2825 6.55749 17.5 7.83999 17.5 9.99999C17.5 12.16 17.2825 13.4425 17.1025 14.14Z"/>
</svg>
