<svg width="32" height="32" viewBox="0 0 32 32" fill="none" xmlns="http://www.w3.org/2000/svg">
<circle cx="16" cy="16" r="15.5" stroke="#0F805D"/>
<path d="M18.5649 15.7525L14.9649 13.3525C14.9198 13.3224 14.8674 13.3052 14.8132 13.3025C14.7591 13.2999 14.7052 13.312 14.6574 13.3375C14.6095 13.3624 14.5694 13.4002 14.5416 13.4465C14.5138 13.4928 14.4993 13.546 14.4999 13.6V18.4C14.4993 18.454 14.5138 18.5072 14.5416 18.5535C14.5694 18.5998 14.6095 18.6376 14.6574 18.6625C14.7016 18.6853 14.7502 18.6981 14.7999 18.7C14.8592 18.7011 14.9172 18.6826 14.9649 18.6475L18.5649 16.2475C18.6067 16.2211 18.6412 16.1846 18.6651 16.1413C18.689 16.0981 18.7015 16.0494 18.7015 16C18.7015 15.9506 18.689 15.9019 18.6651 15.8586C18.6412 15.8154 18.6067 15.7788 18.5649 15.7525ZM15.0999 17.8375V14.1625L17.8599 16L15.0999 17.8375ZM23.6874 11.71C23.6254 11.4813 23.5112 11.2702 23.3537 11.0932C23.1963 10.9162 22.9998 10.7781 22.7799 10.69C20.2449 9.71499 16.1724 9.72999 15.9999 9.72999C15.8274 9.72999 11.7549 9.71499 9.2199 10.69C8.99999 10.7781 8.80355 10.9162 8.64607 11.0932C8.48859 11.2702 8.37437 11.4813 8.3124 11.71C8.1249 12.4375 7.8999 13.7725 7.8999 16C7.8999 18.2275 8.1249 19.5625 8.3124 20.29C8.37437 20.5187 8.48859 20.7298 8.64607 20.9068C8.80355 21.0838 8.99999 21.2218 9.2199 21.31C11.7549 22.285 15.8274 22.27 15.9999 22.27H16.0524C16.5699 22.27 20.3724 22.24 22.7799 21.31C22.9998 21.2218 23.1963 21.0838 23.3537 20.9068C23.5112 20.7298 23.6254 20.5187 23.6874 20.29C23.8749 19.5625 24.0999 18.2275 24.0999 16C24.0999 13.7725 23.8749 12.4375 23.6874 11.71ZM23.1024 20.14C23.0664 20.2765 22.9987 20.4026 22.9049 20.5082C22.8111 20.6137 22.6938 20.6957 22.5624 20.7475C20.1324 21.685 16.0449 21.67 15.9999 21.67C15.9549 21.67 11.8674 21.685 9.4374 20.7475C9.30605 20.6957 9.18872 20.6137 9.09492 20.5082C9.00111 20.4026 8.93345 20.2765 8.8974 20.14C8.7174 19.4425 8.4999 18.16 8.4999 16C8.4999 13.84 8.7174 12.5575 8.8974 11.86C8.93345 11.7235 9.00111 11.5973 9.09492 11.4918C9.18872 11.3863 9.30605 11.3043 9.4374 11.2525C11.8674 10.315 15.9549 10.33 15.9999 10.33C16.0449 10.33 20.1324 10.315 22.5624 11.2525C22.6938 11.3043 22.8111 11.3863 22.9049 11.4918C22.9987 11.5973 23.0664 11.7235 23.1024 11.86C23.2824 12.5575 23.4999 13.84 23.4999 16C23.4999 18.16 23.2824 19.4425 23.1024 20.14Z" fill="#0F805D"/>
</svg>
