<svg width="33" height="32" viewBox="0 0 33 32" fill="none" xmlns="http://www.w3.org/2000/svg">
<path d="M25.8334 9.33329C25.8334 7.86663 24.6334 6.66663 23.1667 6.66663H19.1667V9.33329H23.1667V12.8666L18.5267 18.6666H13.8334V12H8.50008C5.55341 12 3.16675 14.3866 3.16675 17.3333V21.3333H5.83341C5.83341 23.5466 7.62008 25.3333 9.83341 25.3333C12.0467 25.3333 13.8334 23.5466 13.8334 21.3333H19.8067L25.8334 13.8V9.33329ZM5.83341 18.6666V17.3333C5.83341 15.8666 7.03341 14.6666 8.50008 14.6666H11.1667V18.6666H5.83341ZM9.83341 22.6666C9.10008 22.6666 8.50008 22.0666 8.50008 21.3333H11.1667C11.1667 22.0666 10.5667 22.6666 9.83341 22.6666Z" fill="#0F805D"/>
<path d="M7.16675 8H13.8334V10.6667H7.16675V8ZM25.8334 17.3333C23.6201 17.3333 21.8334 19.12 21.8334 21.3333C21.8334 23.5467 23.6201 25.3333 25.8334 25.3333C28.0467 25.3333 29.8334 23.5467 29.8334 21.3333C29.8334 19.12 28.0467 17.3333 25.8334 17.3333ZM25.8334 22.6667C25.1001 22.6667 24.5001 22.0667 24.5001 21.3333C24.5001 20.6 25.1001 20 25.8334 20C26.5667 20 27.1667 20.6 27.1667 21.3333C27.1667 22.0667 26.5667 22.6667 25.8334 22.6667Z" fill="#0F805D"/>
</svg>
