<svg width="228" height="32" viewBox="0 0 228 32" fill="none" xmlns="http://www.w3.org/2000/svg">
<path d="M99.6809 16.1197C99.6789 16.074 99.6615 16.0314 99.632 15.9919C99.6725 15.9908 99.7126 15.9898 99.7521 15.9898C99.7284 16.0324 99.7052 16.076 99.6809 16.1197ZM90.0926 29.4649C90.7073 24.6494 94.0287 18.6069 99.5092 16.3503C99.5388 16.3389 99.5571 16.3223 99.5792 16.3067C98.2325 18.8334 97.524 21.5295 96.005 24.024C94.6819 26.1985 92.4449 27.9211 90.0926 29.4649ZM72.0498 27.7486C71.5759 28.5371 68.8717 31.9647 69.1098 29.9491C69.3052 28.2857 69.8603 26.6577 70.4823 25.0629C71.7665 21.7715 74.1694 19.0131 77.3591 16.688C76.5448 17.649 76.1903 18.9072 75.8137 19.9648C74.8731 22.611 73.5468 25.2562 72.0498 27.7486ZM64.9192 5.33332C62.9481 3.06945 66.5041 4.29128 68.1559 4.70062C70.8895 5.37697 73.4899 6.52188 75.8596 7.75407C79.4872 9.64184 82.9914 11.6802 85.2762 14.5581C77.3897 13.3187 69.5917 10.7016 64.9192 5.33332ZM88.692 6.00554C87.7972 5.4123 87.0034 4.74424 86.2186 4.06685C86.395 4.22062 83.7894 1.03935 83.9157 1.07364C89.0539 2.47206 93.6073 4.60918 97.5957 7.46524C100.528 9.56495 102.378 12.4304 105.176 14.607C101.193 13.2293 97.8643 11.2771 94.2953 9.31665C92.3743 8.26108 90.4824 7.19306 88.692 6.00554ZM46.0769 28.8166C44.5236 30.266 44.1318 29.921 44.138 28.1496C44.1449 26.2764 45.2495 24.4905 46.4467 22.9154C48.4476 20.2869 51.6207 18.2599 54.4648 16.1976C54.4933 16.1976 54.5228 16.1976 54.5518 16.1986C51.9414 20.5664 50.1369 25.0297 46.0769 28.8166ZM30.5625 19.8495C28.8501 22.2235 27.3495 24.7647 23.9 25.733C24.6284 21.3321 28.8168 17.9222 34.0235 16.3327C32.4976 17.1939 31.402 18.6838 30.5625 19.8495ZM2.31936 15.381C8.06838 13.8288 13.5542 13.9888 19.3271 15.0849C18.2435 15.0942 17.1617 15.1036 16.0793 15.1119C15.6801 15.1161 15.5252 15.3986 15.6058 15.6251C11.0397 16.1623 6.2645 17.3643 2.31936 15.381ZM19.9312 4.74529C27.4996 4.81489 33.0844 9.8912 38.0033 14.0522C34.7019 12.8449 31.0549 12.2423 27.9336 10.6216C24.8844 9.0403 22.5537 6.72863 19.9312 4.74529ZM39.3718 3.20143C48.424 4.5853 55.779 8.28082 60.3699 14.4303C52.2617 12.8761 43.0883 9.27199 39.3718 3.20143ZM111.634 15.2875C110.015 15.2438 108.395 15.2179 106.775 15.1815C106.84 15.0755 106.832 14.9436 106.697 14.8241C103.188 11.7187 100.445 8.26419 96.3485 5.57124C92.4554 3.01128 87.7429 1.33754 82.966 0.0170403C82.6369 -0.0743866 82.226 0.219631 82.3646 0.481445C84.2981 4.13438 87.7635 6.60397 91.8007 8.93225C95.3387 10.9727 99.4292 14.0002 103.863 15.1181C98.1161 15.0018 92.3658 14.9124 86.6152 14.8615C85.3348 12.0719 81.8547 10.1042 78.8703 8.41173C74.1909 5.75826 69.0866 3.80816 63.3285 3.05492C62.9719 3.0092 62.6596 3.21492 62.7459 3.50271C63.813 7.01954 68.0463 9.60028 71.7102 11.5535C73.8702 12.7047 76.9026 14.0864 79.9743 14.8189C73.8212 14.7867 67.6671 14.7794 61.5124 14.794C58.9642 7.52758 47.352 3.42998 38.6034 2.25701C38.2525 2.20922 37.788 2.43988 37.9522 2.75779C40.9198 8.53018 49.4589 13.247 57.5498 14.8096C51.687 14.8324 45.8246 14.8646 39.9623 14.9103C39.9333 14.8698 39.8938 14.8324 39.8332 14.8013C39.5978 14.6901 39.3517 14.5966 39.1116 14.4948C33.828 9.56601 27.5444 3.33232 18.4353 3.83621C17.9169 3.86426 17.5852 4.34426 17.996 4.65283C20.7612 6.72657 23.2364 9.15355 26.3435 10.9364C29.6839 12.8532 33.6274 14.0387 37.6247 14.9301C32.5171 14.9706 27.4117 15.0142 22.3061 15.0589C15.5404 12.288 7.32151 12.3483 0.377841 14.6974C-0.0582844 14.8449 -0.126231 15.3934 0.222977 15.6241C2.77552 17.3072 5.95423 17.4994 9.19928 17.4402C13.0975 17.3706 18.1636 17.2116 21.8584 16.1997C22.006 16.1592 22.0839 16.0584 22.085 15.9576C25.4955 15.9877 28.9064 16.0147 32.3174 16.0438C26.9075 17.5835 23.1278 21.7539 22.8703 26.2504C22.856 26.4915 23.1815 26.6598 23.4702 26.6016C26.3756 26.0167 28.2086 24.4998 29.7377 22.5809C30.6393 21.4474 31.3831 20.2432 32.2832 19.1077C33.3493 17.7622 34.6461 17.062 36.3042 16.2236C36.3863 16.183 36.4333 16.1321 36.4622 16.0792C41.998 16.1238 47.5333 16.1633 53.0711 16.1924C47.0508 19.731 41.4186 24.7294 43.1151 30.9267C43.1836 31.1792 43.6171 31.3911 43.9421 31.2883C46.9591 30.3397 48.7452 27.785 50.3038 25.7226C52.5982 22.6868 54.0688 19.4994 55.6369 16.2173C55.6394 16.2121 55.6374 16.2069 55.6394 16.2007C62.569 16.2319 69.4995 16.2454 76.4274 16.2215C70.6093 19.409 67.2325 26.2847 67.7202 31.5449C67.7413 31.7683 67.9731 32.0259 68.3071 31.9979C71.1782 31.7475 72.9837 28.2795 73.8981 26.5684C75.631 23.3248 76.568 19.0256 79.2443 16.2028C85.694 16.1716 92.1431 16.1124 98.5896 16.0054C92.1442 17.7903 88.4729 25.9398 88.642 30.6379C88.6594 31.1127 89.3499 31.2935 89.7919 31.0047C96.0355 26.9185 98.6149 21.9835 100.701 15.969C104.346 15.9036 107.991 15.8277 111.634 15.7311C112.006 15.7218 112.006 15.2968 111.634 15.2875Z" fill="#8E9892" fill-opacity="0.7"/>
<path d="M128.247 15.9898C128.287 15.9898 128.328 15.9908 128.367 15.9919C128.339 16.0314 128.321 16.074 128.32 16.1197C128.295 16.076 128.271 16.0324 128.247 15.9898ZM131.995 24.024C130.476 21.5295 129.766 18.8334 128.421 16.3067C128.444 16.3223 128.461 16.3389 128.491 16.3503C133.972 18.6069 137.292 24.6494 137.908 29.4649C135.555 27.9211 133.318 26.1985 131.995 24.024ZM152.185 19.9648C151.81 18.9072 151.455 17.649 150.641 16.688C153.831 19.0131 156.234 21.7715 157.518 25.0629C158.139 26.6577 158.695 28.2857 158.892 29.9491C159.128 31.9647 156.424 28.5371 155.951 27.7486C154.454 25.2562 153.126 22.611 152.185 19.9648ZM142.723 14.5581C145.01 11.6802 148.513 9.64183 152.142 7.75407C154.511 6.52188 157.111 5.37697 159.844 4.70062C161.496 4.29127 165.051 3.06945 163.081 5.33332C158.409 10.7016 150.611 13.3187 142.723 14.5581ZM133.705 9.31665C130.136 11.2771 126.808 13.2293 122.824 14.607C125.622 12.4304 127.473 9.56495 130.404 7.46524C134.393 4.60917 138.946 2.47206 144.085 1.07364C144.211 1.03935 141.605 4.22061 141.781 4.06685C140.997 4.74424 140.204 5.4123 139.308 6.00554C137.517 7.19306 135.627 8.26108 133.705 9.31665ZM173.449 16.1986C173.477 16.1976 173.507 16.1976 173.535 16.1976C176.379 18.2599 179.552 20.2869 181.553 22.9154C182.752 24.4905 183.855 26.2764 183.863 28.1496C183.868 29.921 183.476 30.266 181.924 28.8166C177.864 25.0297 176.06 20.5664 173.449 16.1986ZM193.976 16.3327C199.183 17.9222 203.371 21.3321 204.1 25.733C200.652 24.7647 199.15 22.2235 197.437 19.8495C196.597 18.6838 195.504 17.1939 193.976 16.3327ZM212.395 15.6251C212.474 15.3986 212.319 15.1161 211.922 15.1119C210.839 15.1036 209.756 15.0942 208.673 15.0849C214.446 13.9888 219.932 13.8288 225.681 15.381C221.735 17.3643 216.961 16.1623 212.395 15.6251ZM200.067 10.6216C196.946 12.2423 193.299 12.8449 189.997 14.0522C194.916 9.8912 200.501 4.81489 208.069 4.74529C205.447 6.72863 203.115 9.04029 200.067 10.6216ZM167.631 14.4303C172.222 8.28082 179.576 4.5853 188.628 3.20142C184.911 9.27199 175.739 12.8761 167.631 14.4303ZM116.366 15.7311C120.01 15.8277 123.654 15.9036 127.299 15.969C129.385 21.9835 131.964 26.9185 138.209 31.0047C138.65 31.2935 139.341 31.1127 139.358 30.6379C139.528 25.9398 135.856 17.7903 129.411 16.0054C135.859 16.1124 142.307 16.1716 148.756 16.2028C151.433 19.0256 152.368 23.3248 154.101 26.5684C155.017 28.2795 156.822 31.7475 159.693 31.9979C160.027 32.0259 160.259 31.7683 160.279 31.5449C160.767 26.2847 157.391 19.409 151.573 16.2215C158.501 16.2454 165.432 16.2319 172.361 16.2007C172.362 16.2069 172.361 16.2121 172.362 16.2173C173.932 19.4994 175.402 22.6868 177.695 25.7226C179.255 27.785 181.041 30.3397 184.058 31.2883C184.383 31.3911 184.816 31.1792 184.885 30.9267C186.581 24.7294 180.949 19.731 174.93 16.1924C180.466 16.1633 186.003 16.1238 191.538 16.0792C191.566 16.1321 191.613 16.183 191.696 16.2236C193.354 17.062 194.651 17.7622 195.718 19.1077C196.617 20.2432 197.362 21.4474 198.264 22.5809C199.791 24.4998 201.624 26.0167 204.53 26.6016C204.818 26.6598 205.145 26.4915 205.13 26.2504C204.872 21.7539 201.091 17.5835 195.683 16.0438C199.094 16.0147 202.506 15.9877 205.916 15.9576C205.917 16.0584 205.995 16.1592 206.142 16.1997C209.836 17.2116 214.902 17.3706 218.801 17.4402C222.045 17.4994 225.225 17.3072 227.777 15.6241C228.125 15.3934 228.059 14.8449 227.622 14.6974C220.678 12.3483 212.461 12.288 205.695 15.0589C200.588 15.0142 195.483 14.9706 190.376 14.9301C194.372 14.0387 198.315 12.8532 201.656 10.9364C204.764 9.15354 207.239 6.72657 210.004 4.65283C210.414 4.34426 210.084 3.86426 209.565 3.83621C200.456 3.33232 194.171 9.56601 188.888 14.4948C188.647 14.5966 188.403 14.6901 188.167 14.8013C188.106 14.8324 188.066 14.8698 188.037 14.9103C182.176 14.8646 176.313 14.8324 170.45 14.8096C178.542 13.247 187.081 8.53018 190.048 2.75779C190.212 2.43987 189.747 2.20922 189.397 2.25701C180.647 3.42998 169.036 7.52758 166.487 14.794C160.333 14.7794 154.179 14.7867 148.025 14.8189C151.098 14.0864 154.129 12.7047 156.289 11.5535C159.954 9.60028 164.187 7.01954 165.254 3.50271C165.341 3.21492 165.028 3.0092 164.672 3.05492C158.913 3.80815 153.808 5.75826 149.129 8.41173C146.145 10.1042 142.665 12.0719 141.384 14.8615C135.635 14.9124 129.884 15.0018 124.137 15.1181C128.57 14.0002 132.661 10.9727 136.2 8.93224C140.237 6.60397 143.701 4.13438 145.636 0.481445C145.775 0.219629 145.363 -0.0743904 145.034 0.0170383C140.257 1.33754 135.546 3.01128 131.652 5.57124C127.555 8.26419 124.811 11.7187 121.303 14.8241C121.168 14.9436 121.16 15.0755 121.224 15.1815C119.605 15.2179 117.985 15.2438 116.366 15.2875C115.993 15.2968 115.993 15.7218 116.366 15.7311Z" fill="#8E9892" fill-opacity="0.7"/>
</svg>
