<svg width="33" height="32" viewBox="0 0 33 32" fill="none" xmlns="http://www.w3.org/2000/svg">
<path d="M16.5041 28C16.2766 28 16.0584 27.921 15.8976 27.7803C15.7367 27.6397 15.6464 27.4489 15.6464 27.25V25.3105L14.5382 26.281C14.3772 26.4216 14.1588 26.5006 13.9312 26.5004C13.7036 26.5003 13.4854 26.4211 13.3246 26.2803C13.1638 26.1394 13.0735 25.9485 13.0737 25.7495C13.0738 25.5504 13.1644 25.3596 13.3255 25.219L15.6464 23.1895V17.299L9.81405 20.2435L8.96322 23.0185C8.90408 23.2106 8.76007 23.3744 8.56286 23.4737C8.36566 23.573 8.13143 23.5997 7.91169 23.548C7.69195 23.4963 7.5047 23.3704 7.39114 23.1979C7.27758 23.0255 7.24701 22.8206 7.30616 22.6285L7.7127 21.3055L5.79147 22.2745C5.59458 22.3724 5.3614 22.3982 5.14282 22.3463C4.92425 22.2944 4.73802 22.169 4.62477 21.9975C4.51152 21.826 4.48045 21.6223 4.53834 21.4308C4.59624 21.2393 4.73839 21.0757 4.93377 20.9755L6.85501 20.0065L5.33861 19.651C5.2298 19.6254 5.12783 19.5813 5.03852 19.5212C4.9492 19.4612 4.87429 19.3863 4.81806 19.3009C4.76183 19.2155 4.72539 19.1213 4.7108 19.0236C4.69622 18.9259 4.70379 18.8266 4.73307 18.7315C4.76236 18.6364 4.81279 18.5472 4.88148 18.4691C4.95017 18.391 5.03579 18.3255 5.13343 18.2763C5.23107 18.2271 5.33884 18.1953 5.45057 18.1825C5.5623 18.1698 5.6758 18.1764 5.78461 18.202L8.95464 18.9445L14.7887 16L8.95636 13.0555L5.78289 13.798C5.56458 13.8456 5.33363 13.8162 5.13983 13.7163C4.94602 13.6164 4.80488 13.4539 4.74682 13.2638C4.68877 13.0737 4.71845 12.8713 4.82947 12.7002C4.94049 12.5291 5.12395 12.4029 5.34032 12.349L6.85501 11.9935L4.93377 11.0245C4.83544 10.9756 4.74914 10.9102 4.67984 10.832C4.61054 10.7539 4.5596 10.6645 4.52996 10.569C4.50033 10.4736 4.49258 10.3739 4.50715 10.2758C4.52173 10.1778 4.55836 10.0832 4.61491 9.9975C4.67147 9.91185 4.74685 9.83682 4.8367 9.77674C4.92655 9.71665 5.02911 9.67271 5.13847 9.64743C5.24782 9.62214 5.36182 9.61603 5.47389 9.62943C5.58596 9.64283 5.69389 9.67548 5.79147 9.7255L7.7127 10.6945L7.30616 9.37C7.27494 9.27427 7.26584 9.17406 7.27937 9.07522C7.29291 8.97638 7.32881 8.88088 7.38498 8.79429C7.44116 8.70771 7.51648 8.63177 7.60656 8.5709C7.69664 8.51004 7.79968 8.46546 7.90967 8.43977C8.01966 8.41409 8.13439 8.4078 8.24718 8.42129C8.35997 8.43478 8.46857 8.46776 8.56663 8.51832C8.66469 8.56889 8.75027 8.63602 8.81836 8.71579C8.88645 8.79557 8.93569 8.88641 8.96322 8.983L9.81234 11.7565L15.6464 14.701V8.8105L13.3255 6.781C13.2457 6.71137 13.1824 6.62868 13.1392 6.53766C13.096 6.44664 13.0738 6.34908 13.0737 6.25053C13.0736 6.15198 13.0957 6.05439 13.1388 5.96332C13.1818 5.87225 13.245 5.78948 13.3246 5.71975C13.4042 5.65002 13.4988 5.59468 13.6029 5.55691C13.707 5.51913 13.8185 5.49965 13.9312 5.49958C14.0439 5.49951 14.1555 5.51885 14.2597 5.5565C14.3638 5.59415 14.4585 5.64937 14.5382 5.719L15.6464 6.6895V4.75C15.6464 4.55109 15.7367 4.36032 15.8976 4.21967C16.0584 4.07902 16.2766 4 16.5041 4C16.7315 4 16.9497 4.07902 17.1105 4.21967C17.2714 4.36032 17.3618 4.55109 17.3618 4.75V6.6895L18.4716 5.719C18.6327 5.57837 18.851 5.49944 19.0786 5.49958C19.3062 5.49972 19.5244 5.57892 19.6853 5.71975C19.8461 5.86058 19.9363 6.05151 19.9362 6.25053C19.936 6.44955 19.8455 6.64037 19.6844 6.781L17.3618 8.8105V14.701L23.1941 11.7565L24.0449 8.9815C24.1041 8.78935 24.2481 8.62562 24.4453 8.52632C24.6425 8.42701 24.8767 8.40028 25.0964 8.452C25.3162 8.50372 25.5034 8.62965 25.617 8.80209C25.7306 8.97453 25.7611 9.17935 25.702 9.3715L25.2971 10.6945L27.2184 9.7255C27.4153 9.62761 27.6485 9.6018 27.867 9.65369C28.0856 9.70558 28.2718 9.83096 28.3851 10.0025C28.4983 10.174 28.5294 10.3777 28.4715 10.5692C28.4136 10.7607 28.2715 10.9243 28.0761 11.0245L26.1548 11.9935L27.6695 12.349C27.8893 12.4007 28.0765 12.5266 28.1901 12.6991C28.3036 12.8715 28.3342 13.0764 28.2751 13.2685C28.2159 13.4606 28.0719 13.6244 27.8747 13.7237C27.6775 13.823 27.4433 13.8497 27.2235 13.798L24.0535 13.0555L18.2195 16L24.0518 18.9445L27.2235 18.202C27.4433 18.1505 27.6774 18.1774 27.8745 18.2768C28.0715 18.3763 28.2153 18.5401 28.2742 18.7323C28.3331 18.9244 28.3023 19.1291 28.1886 19.3014C28.0749 19.4737 27.8876 19.5995 27.6678 19.651L26.1531 20.0065L28.0744 20.9755C28.2698 21.0757 28.4119 21.2393 28.4698 21.4308C28.5277 21.6223 28.4966 21.826 28.3834 21.9975C28.2701 22.169 28.0839 22.2944 27.8653 22.3463C27.6467 22.3982 27.4136 22.3724 27.2167 22.2745L25.2954 21.3055L25.7003 22.63C25.7315 22.7257 25.7406 22.8259 25.727 22.9248C25.7135 23.0236 25.6776 23.1191 25.6214 23.2057C25.5653 23.2923 25.4899 23.3682 25.3999 23.4291C25.3098 23.49 25.2067 23.5345 25.0968 23.5602C24.9868 23.5859 24.872 23.5922 24.7592 23.5787C24.6464 23.5652 24.5379 23.5322 24.4398 23.4817C24.3417 23.4311 24.2562 23.364 24.1881 23.2842C24.12 23.2044 24.0707 23.1136 24.0432 23.017L23.1941 20.2435L17.3618 17.299V23.1895L19.6827 25.219C19.8437 25.3596 19.9343 25.5504 19.9345 25.7495C19.9346 25.9485 19.8444 26.1394 19.6835 26.2803C19.5227 26.4211 19.3045 26.5003 19.0769 26.5004C18.8493 26.5006 18.631 26.4216 18.4699 26.281L17.36 25.3105V27.25C17.36 27.4489 17.2697 27.6397 17.1088 27.7803C16.948 27.921 16.7298 28 16.5024 28H16.5041Z" fill="#0F805D"/>
</svg>
