<svg xmlns="http://www.w3.org/2000/svg" xmlns:xlink="http://www.w3.org/1999/xlink"><defs><clipPath id="a"><path fill="#fff" transform="translate(.4 .8)" d="M0 0h19.2v15.086H0z"/></clipPath></defs><symbol id="burger"><path d="M43.125 12.5H2.875A2.375 2.375 0 0 0 .5 14.875v.25A2.375 2.375 0 0 0 2.875 17.5h40.25a2.375 2.375 0 0 0 2.375-2.375v-.25a2.375 2.375 0 0 0-2.375-2.375ZM43.125 25H2.875A2.375 2.375 0 0 0 .5 27.375v.25A2.375 2.375 0 0 0 2.875 30h40.25a2.375 2.375 0 0 0 2.375-2.375v-.25A2.375 2.375 0 0 0 43.125 25ZM43.125 0H2.875A2.375 2.375 0 0 0 .5 2.375v.25A2.375 2.375 0 0 0 2.875 5h40.25A2.375 2.375 0 0 0 45.5 2.625v-.25A2.375 2.375 0 0 0 43.125 0Z"/></symbol><symbol id="call"><path d="m4.562.505-.86.259A4.2 4.2 0 0 0 .757 4.189c-.356 2.481.44 5.383 2.362 8.71 1.916 3.32 4.026 5.458 6.348 6.394a4.2 4.2 0 0 0 4.458-.846l.65-.617a2.4 2.4 0 0 0 .297-3.147l-1.627-2.256a1.8 1.8 0 0 0-1.986-.668l-2.462.753-.063.012c-.272.04-.898-.547-1.678-1.899-.816-1.413-.984-2.24-.76-2.454l1.252-1.167a2.996 2.996 0 0 0 .69-3.42l-.794-1.766A2.4 2.4 0 0 0 4.564.506h-.002ZM6.35 2.31l.792 1.765a1.796 1.796 0 0 1-.412 2.052L5.474 7.296c-.802.761-.536 2.06.544 3.93 1.015 1.758 1.942 2.627 2.938 2.476l.148-.031 2.506-.764a.6.6 0 0 1 .663.222l1.627 2.255a1.2 1.2 0 0 1-.148 1.575l-.652.617a3 3 0 0 1-3.183.603c-2.038-.82-3.964-2.773-5.758-5.88C2.36 9.185 1.632 6.537 1.945 4.36A3 3 0 0 1 4.05 1.912l.86-.26a1.2 1.2 0 0 1 1.44.659h.001Z"/></symbol><symbol id="close"><rect width="35.207" height="2.994" rx="1.497" transform="matrix(.69604 .718 -.69604 .718 3.084 1)" fill="#0F805D" fill-opacity=".75"/><rect width="35.207" height="2.994" rx="1.497" transform="matrix(.69604 -.718 .69604 .718 .379 26.164)" fill="#0F805D" fill-opacity=".75"/></symbol><symbol id="email"><path d="M16.875 0H1.125C.827 0 .54.123.33.342.119.56 0 .857 0 1.167v11.666c0 .31.119.607.33.825.21.22.497.342.795.342h15.75c.298 0 .584-.123.796-.342.21-.218.329-.515.329-.825V1.167c0-.31-.119-.606-.33-.825A1.105 1.105 0 0 0 16.875 0Zm-.866 12.833H2.059L5.996 8.61l-.81-.81-4.061 4.357V2.053L8.117 9.27c.21.217.496.34.793.34.297 0 .582-.123.793-.34l7.172-7.396V12.08l-4.14-4.293-.793.822 4.067 4.223ZM1.862 1.167h14.102L8.91 8.44 1.862 1.167Z"/></symbol><symbol id="htmlacademy" viewBox="0 0 20 24"><path d="M10.111 0h-.074L0 .985V18.37L10.037 24 20 18.37V.984L10.111 0Zm8.476 8.516-8.55-4.786v-.07h-.074l-.075-.07v.07L1.413 8.516V2.182l8.55-.845 8.624.845v6.334Zm-8.624-3.73 8.55 4.715-3.346 1.83-5.279-2.956v.986l4.387 2.463-.67.352-3.717-2.111v.985l2.826 1.619-.595.351-2.23-1.266v.985l1.412.774-1.338.774-8.476-4.715 8.476-4.786Zm-8.55 5.842 8.475 4.786v.703L4.015 12.81v.986l5.948 3.378v.774L4.015 14.64v.986l5.948 3.378 6.022-3.449v-3.66l2.528-1.407v7.038l-8.55 4.856-8.55-4.786v-6.967Z" fill="#000"/></symbol><symbol id="leaf"><path d="M13.487 5.979c-1.24-2.101-3-3.847-5.111-5.07L8 .692l-.376.217a14.113 14.113 0 0 0-7.05 12.717c.075 2.196.915 4.044 2.429 5.345 1.159.994 2.646 1.602 4.247 1.747v2.59h1.5v-12h-1.5v7.9c-2.534-.293-5.056-2.084-5.177-5.633A12.67 12.67 0 0 1 8 2.434a12.67 12.67 0 0 1 5.927 11.141c-.096 2.84-1.73 4.553-3.677 5.275v1.588a7.321 7.321 0 0 0 2.747-1.468c1.514-1.3 2.354-3.148 2.43-5.344a14.107 14.107 0 0 0-1.94-7.647Z"/></symbol><symbol id="logo-text" viewBox="0 0 65 36"><path d="M9.48 31.2c-.614 0-.974-.307-1.08-.92a22.118 22.118 0 0 1-.2-2.88A431.6 431.6 0 0 1 8 21c-.027-2.24-.04-3.867-.04-4.88a3.443 3.443 0 0 0-1.4 1.12c-.32.453-.627 1.04-.92 1.76-.48 1.307-.72 2.6-.72 3.88v1c0 .16-.014.653-.04 1.48a26.92 26.92 0 0 1-.24 2.72c-.16 1.333-.827 2.333-2 3-.187.107-.427.16-.72.16-.347 0-.64-.08-.88-.24-.214-.187-.28-.44-.2-.76.053-.187.133-.32.24-.4.106-.08.253-.16.44-.24.213-.08.373-.16.48-.24.4-.373.6-.88.6-1.52l.04-3.36c.053-1.307.12-2.307.2-3 .08-.72.28-1.547.6-2.48.106-.347.36-.893.76-1.64.4-.773.693-1.267.88-1.48-1.414-.693-2.4-1.56-2.96-2.6-.534-1.04-.8-2.56-.8-4.56 0-1.573.28-3.12.84-4.64.56-1.493 1.48-2.44 2.76-2.84l1.76-.6c.24-.107.506-.16.8-.16.56 0 1.2.24 1.92.72.453.267.68.707.68 1.32-.16 2.24-.24 3.933-.24 5.08V16.48c0 2.827.026 4.96.08 6.4.026 1.093.066 2.067.12 2.92.053.853.093 1.56.12 2.12l.12 2.2v.24c0 .347-.054.573-.16.68-.107.107-.32.16-.64.16ZM7.8 2.16a22.2 22.2 0 0 1-.92.32c-.454.16-.854.347-1.2.56-.4.187-.774.587-1.12 1.2a8.952 8.952 0 0 0-.76 1.88c-.187.667-.267 1.173-.24 1.52l.08 1.76c0 .827.013 1.48.04 1.96.026.747.24 1.373.64 1.88.426.48 1.013.813 1.76 1 .293.08.626.2 1 .36.4.133.693.24.88.32L7.8 2.16Zm7.637 29.16c-.027-.107-.08-.293-.16-.56a2.057 2.057 0 0 1-.04-.68c.053-3.093.133-5.4.24-6.92.026-.56.04-1.387.04-2.48 0-1.973-.094-4.36-.28-7.16-.16-3.413-.24-6-.24-7.76 0-.4.16-.76.48-1.08.32-.32.706-.48 1.16-.48 1.52 0 2.84.12 3.96.36.533.107.88.293 1.04.56.16.24.213.653.16 1.24-.374.24-.76.36-1.16.36a3.37 3.37 0 0 1-.6-.08c-.24-.053-.88-.107-1.92-.16h-.08c-.374 0-.56.2-.56.6-.134 3.867-.2 6.067-.2 6.6.053 2.773.106 4.867.16 6.28 0 .187.013.413.04.68.026.267.026.493 0 .68-.08 1.227-.12 2.52-.12 3.88 0 2.213.04 3.76.12 4.64-.027.587-.12.987-.28 1.2-.16.24-.454.36-.88.36-.107 0-.4-.027-.88-.08Zm13.773.44c-.694 0-1.334-.227-1.92-.68-.587-.427-1.067-1.013-1.44-1.76-.774-1.627-1.254-3.4-1.44-5.32-.24-1.813-.36-3.56-.36-5.24 0-.32.013-.587.04-.8v-.72c0-.133-.014-.2-.04-.2v-.72l.04-2.8c.026-.853.133-2.213.32-4.08.133-1.28.44-2.52.92-3.72.187-.533.427-.933.72-1.2.293-.293.627-.44 1-.44 1.066 0 2.026.2 2.88.6a5.868 5.868 0 0 1 2.16 1.6c.533.667.986 1.493 1.36 2.48.373.96.64 1.987.8 3.08.16 1.12.24 2.307.24 3.56v.32c0 .827.013 1.573.04 2.24l.04 2.28c0 7.68-1.787 11.52-5.36 11.52Zm-.16-1.68c.48 0 .92-.187 1.32-.56.4-.4.706-.933.92-1.6.507-1.36.813-2.827.92-4.4.133-1.36.2-2.533.2-3.52 0-1.2-.093-2.773-.28-4.72-.16-2.053-.24-3.587-.24-4.6v-.72c-.053-1.013-.4-1.893-1.04-2.64-.614-.747-1.373-1.12-2.28-1.12-.907 0-1.507.52-1.8 1.56-.267.827-.4 1.893-.4 3.2 0 .507.013.933.04 1.28v1.08l-.08 1.84c-.053.56-.08 1.173-.08 1.84 0 1.44.04 2.867.12 4.28.107 2 .373 3.947.8 5.84.426 1.973 1.053 2.96 1.88 2.96Zm23.843 5.84c-.213.053-.373.08-.48.08-.32 0-.547-.2-.68-.6-.107-.32-.16-.72-.16-1.2l.04-2.76c0-.16-.013-.307-.04-.44l-.08-.4h-4.6c.267 0-.373.133-1.92.4-1.52.24-2.707.4-3.56.48l-1.8.16-2 .2v.88c.027.347.027.76 0 1.24v.2c0 .427-.107.747-.32.96-.213.213-.413.32-.6.32-.107 0-.267-.053-.48-.16-.48-.347-.747-.827-.8-1.44l-.12-2.92c-.053-1.04.373-1.56 1.28-1.56.507-.027.907-.16 1.2-.4.293-.24.64-.613 1.04-1.12.4-.533.707-1.12.92-1.76.24-.667.467-1.467.68-2.4.24-1.013.413-2 .52-2.96.107-.96.24-2.333.4-4.12.24-2.8.36-5.613.36-8.44l-.04-2.24c0-.507.147-.92.44-1.24.293-.347.693-.52 1.2-.52.16 0 .28.013.36.04 1.227.213 2.227.347 3 .4h.2c.347 0 .547-.067.6-.2.24-.32.533-.48.88-.48.24 0 .453.053.64.16.427.16.707.56.84 1.2l-.2 6.84c0 3.707.013 6.48.04 8.32 0 .96.027 2.427.08 4.4l.04 2.2c0 .213.013.413.04.6l.08.56c.533.053.933.08 1.2.08.213 0 .373-.013.48-.04a1.942 1.942 0 0 1 1.56.44c.48.347.72.8.72 1.36 0 .72-.053 1.8-.16 3.24 0 .373-.027.907-.08 1.6-.053.56-.293.907-.72 1.04Zm-11.52-6.36c1.493-.133 2.667-.253 3.52-.36a17.48 17.48 0 0 0 2.6-.6c.267-3.227.4-6.68.4-10.36 0-3.413-.133-7.16-.4-11.24-.693-.027-1.987-.093-3.88-.2l-.04 1.88c-.213 4.107-.36 7.173-.44 9.2a33.269 33.269 0 0 1-1.56 8.96c-.053.16-.173.56-.36 1.2a4.45 4.45 0 0 1-.76 1.6l.92-.08Zm22.795 1.8c-.614 0-1.067-.093-1.36-.28-.294-.187-.44-.533-.44-1.04 0-.8-.134-2.16-.4-4.08l-.16-.84-3.96-.6c-.16.613-.387 1.853-.68 3.72-.16 1.307-.414 2.173-.76 2.6-.187.24-.454.36-.8.36a1.5 1.5 0 0 1-.88-.28c-.267-.213-.4-.467-.4-.76l.08-.2.04-.16c1.76-6.853 3.093-13.613 4-20.28 0-.107.013-.28.04-.52.026-.267.053-.64.08-1.12.08-.987.16-1.773.24-2.36.106-.587.266-1.027.48-1.32h1.36c.373 0 .693.093.96.28.266.16.4.4.4.72 0 2.027.28 5.04.84 9.04.533 4.107.8 6.987.8 8.64 0 .16.066.573.2 1.24.133.613.2 1.013.2 1.2 0 .187.133.987.4 2.4.24 1.28.36 2.107.36 2.48v.04c0 .587-.214.96-.64 1.12Zm-2.64-7.68c-.08-.4-.12-.893-.12-1.48 0-2.4-.214-5.467-.64-9.2l-.4-4.16c-1.147 6.267-1.934 11-2.36 14.2.4.267 1.573.48 3.52.64Z" fill="#0F805D"/></symbol><symbol id="logo" viewBox="0 0 52 52"><path d="M14.408 18.444s-1.863 1.119-2.278 2.958c-.416 1.84 0 3.854 0 3.854s-2.922 1.206-2.922 4.996c0 3.791 2.464 4.863 2.464 4.863s.03 4.474 2.787 6.887c2.759 2.413 5.653 2.425 5.653 2.425s1.505 3.183 5.933 3.183 5.933-3.183 5.933-3.183 2.998-.438 5.653-2.425c2.654-1.986 2.581-6.887 2.581-6.887s2.67-1.07 2.67-4.863c0-3.791-2.922-4.995-2.922-4.995s.416-2.015 0-3.855c-.417-1.84-2.279-2.958-2.279-2.958" fill="#B22EC8"/><path d="M40.046 24.142c0-7.741-6.276-9.921-14.017-9.921-7.74 0-14.017 2.18-14.017 9.921S18.288 38.16 26.029 38.16c7.74 0 14.017-6.276 14.017-14.017Z" fill="#B22EC8"/><path d="M26.475 47.6s3.79-2.65 3.542-8.747c1.63-1.695 2.136-3.974.655-6.743 2.501-3.565 2.241-7.421-.75-10.345 1.232-1.78.587-3.32-.807-4.479 0 0 4.012 1.968 7.085-.845 0 0 6.459 4.644 3.76 8.816 0 0 7.131 4.82.253 9.858 0 0 1.004 7.681-8.06 9.28 0 0-2.386 2.702-5.678 3.205Z" fill="#6A107A"/><path d="M40.286 8.134c-3.084 14.391-12.549 9.485-13.835 6.954-1.286-2.531-.044-12.609 13.835-6.955Z" fill="#0F805D"/><path d="M11.804 8.134c3.084 14.391 12.549 9.485 13.835 6.954 1.285-2.531.043-12.609-13.835-6.955Z" fill="#0F805D"/><path d="M40.285 8.134c-3.083 14.391-12.548 9.485-13.834 6.954-1.286-2.531-.044-12.609 13.834-6.955v0Z" stroke="#000" stroke-width="2" stroke-miterlimit="10" stroke-linecap="round" stroke-linejoin="round"/><path d="M32.913 11.046c-2.26.868-5.156 2.264-6.438 4.084M11.803 8.134c3.084 14.391 12.549 9.485 13.835 6.954 1.285-2.531.043-12.609-13.835-6.955v0Z" stroke="#000" stroke-width="2" stroke-miterlimit="10" stroke-linecap="round" stroke-linejoin="round"/><path d="M19.176 11.046c2.262.868 5.156 2.264 6.439 4.084m-11.207 3.314s-1.863 1.119-2.278 2.958c-.416 1.84 0 3.854 0 3.854s-2.922 1.206-2.922 4.996c0 3.791 2.464 4.863 2.464 4.863s.03 4.474 2.787 6.887c2.759 2.413 5.653 2.425 5.653 2.425s1.505 3.183 5.933 3.183 5.933-3.183 5.933-3.183 2.998-.438 5.653-2.425c2.654-1.986 2.581-6.887 2.581-6.887s2.67-1.07 2.67-4.863c0-3.791-2.922-4.995-2.922-4.995s.416-2.015 0-3.855c-.417-1.84-2.279-2.958-2.279-2.958" stroke="#000" stroke-width="2" stroke-miterlimit="10" stroke-linecap="round" stroke-linejoin="round"/><path d="M30.509 21.288s-1.89 1.998-4.221 1.998m-4.382-1.998s1.89 1.998 4.221 1.998m10.029 5.26c0 2.088-1.793 3.78-4.003 3.78m-4.158-3.78c0 2.088 1.793 3.78 4.004 3.78m-7.528-3.78c0 2.088-1.793 3.78-4.004 3.78m-4.157-3.78c0 2.088 1.792 3.78 4.004 3.78m9.95 6.574c-.753 1.004-2.282 1.69-4.045 1.69m-4.306-1.813c.718 1.07 2.299 1.813 4.132 1.813m-4.169-1.554c0 .896-.555 1.704-1.443 2.27m9.875-2.27c0 .977.66 1.849 1.69 2.418" stroke="#000" stroke-width="2" stroke-miterlimit="10" stroke-linecap="round" stroke-linejoin="round"/><path d="M16.908 30.819c0 1.708-1.2 3.152-2.847 3.62m4.003-13.177c0 2.235-1.793 4.048-4.004 4.048m19.431-4.048c0 2.235 1.793 4.048 4.004 4.048M35.57 30.82c0 1.632 1.095 3.022 2.629 3.553" stroke="#000" stroke-width="2" stroke-miterlimit="10" stroke-linecap="round" stroke-linejoin="round"/></symbol><symbol id="telegram" viewBox="0 0 20 20"><path d="M18.156 2.812a1.242 1.242 0 0 0-1.258-.195L2.565 8.403a1.234 1.234 0 0 0 .062 2.307l3.093 1.074 1.676 5.54c.003.012.014.02.018.03a.391.391 0 0 0 .255.234c.009.003.014.01.022.012h.007c.062.014.127.01.187-.009.006-.001.013-.001.02-.004a.394.394 0 0 0 .153-.097c.004-.006.012-.007.017-.012l2.41-2.66 3.518 2.724c.214.167.477.257.748.257a1.24 1.24 0 0 0 1.215-.985L18.576 4a1.226 1.226 0 0 0-.42-1.189v.001ZM8.27 12.836l-.565 2.75-1.18-3.903 5.852-3.048-3.998 3.999a.4.4 0 0 0-.109.202Zm6.912 3.818a.43.43 0 0 1-.278.319.42.42 0 0 1-.411-.063l-3.81-2.95a.4.4 0 0 0-.541.047l-1.678 1.849.565-2.742 5.751-5.752a.4.4 0 0 0-.467-.637l-8.29 4.318-3.134-1.09A.42.42 0 0 1 2.6 9.56a.426.426 0 0 1 .267-.414l14.331-5.787a.429.429 0 0 1 .447.069.418.418 0 0 1 .146.414l-2.61 12.812Z"/></symbol><symbol id="vkontakte" viewBox="0 0 20 16"><g clip-path="url(#a)"><path d="M1.4 5.176c0-.503.343-.774 1.03-.814l2.644.015c.178 0 .296.074.355.222.272.74.577 1.378.914 1.916.338.537.778 1.156 1.323 1.856a.242.242 0 0 0 .23.133.224.224 0 0 0 .196-.103l.053-.163.018-2.56c0-.177-.05-.295-.151-.354-.1-.06-.287-.104-.56-.133-.212-.03-.319-.138-.319-.326 0-.04.006-.069.018-.089.249-.64.959-.961 2.13-.961l.994-.015c.45 0 .822.094 1.118.281.296.187.444.483.444.888v3.358c.083.049.16.074.23.074.178 0 .332-.09.462-.267 1.302-1.518 2.006-2.534 2.113-3.047 0-.01.011-.034.035-.074.083-.148.219-.276.408-.385.19-.108.355-.182.497-.221.048-.02.1-.03.16-.03h2.751l.178.015c.236 0 .42.093.55.28.047.06.08.124.098.193.017.07.03.138.035.207l.009.119v.103c-.083.404-.293.836-.63 1.295-.337.458-.766.954-1.287 1.486-.52.533-.846.883-.976 1.05-.107.119-.16.227-.16.326 0 .079.047.168.142.266l2.591 2.722c.143.158.213.33.213.518 0 .227-.106.414-.319.562a1.484 1.484 0 0 1-.763.252l-.302.014h-2.698a.632.632 0 0 0-.071.008.65.65 0 0 1-.071.007c-.26 0-.503-.094-.728-.281-.083-.079-.639-.66-1.668-1.746a.899.899 0 0 0-.249-.192c-.047.158-.11.385-.186.68a47.49 47.49 0 0 1-.169.637l-.053.251c-.118.345-.367.552-.745.622l-.249.014h-1.74c-.982 0-1.96-.374-2.937-1.124-.976-.75-1.855-1.718-2.636-2.907-.781-1.188-1.509-2.571-2.183-4.15a1.012 1.012 0 0 1-.089-.428Zm10.668 3.831a1.35 1.35 0 0 1-.675-.17c-.2-.113-.302-.269-.302-.466V4.97c0-.198-.059-.338-.177-.422-.118-.084-.325-.126-.621-.126l-1.012.03c-.509 0-.893.074-1.154.222.52.207.781.542.781 1.006v2.603a.852.852 0 0 1-.355.614c-.213.163-.45.244-.71.244-.355 0-.627-.143-.816-.429-.923-1.163-1.61-2.268-2.06-3.313l-.159-.385-2.36-.015c-.155 0-.24.008-.258.022-.018.015-.027.057-.027.126 0 .089.012.183.036.281l.373.829c.994 2.14 2.073 3.826 3.239 5.059 1.165 1.233 2.31 1.849 3.435 1.849h1.774c.072 0 .125-.017.16-.052a.425.425 0 0 0 .089-.2l.036-.148.337-1.301c.094-.178.177-.296.248-.355a.698.698 0 0 1 .462-.163c.284 0 .574.143.87.429l1.508 1.598c.095.128.195.192.302.192h2.929c.355 0 .532-.074.532-.222a.252.252 0 0 0-.053-.148l-2.574-2.677c-.2-.207-.301-.43-.301-.666 0-.237.094-.464.284-.68.153-.198.452-.526.896-.984.444-.459.831-.888 1.162-1.287.332-.4.55-.762.657-1.088l.053-.192a.196.196 0 0 1-.017-.096.301.301 0 0 0-.018-.11h-2.787a.973.973 0 0 0-.426.265l-.106.281c-.296.68-1.071 1.731-2.325 3.151a1.358 1.358 0 0 1-.87.296Z"/></g></symbol><symbol id="youtube" viewBox="0 0 20 20"><path d="m12.565 9.752-3.6-2.4A.3.3 0 0 0 8.5 7.6v4.8a.293.293 0 0 0 .158.262.339.339 0 0 0 .142.038.27.27 0 0 0 .165-.052l3.6-2.4a.292.292 0 0 0 0-.496ZM9.1 11.837V8.163L11.86 10 9.1 11.838Zm8.588-6.127a1.53 1.53 0 0 0-.908-1.02c-2.535-.975-6.608-.96-6.78-.96-.172 0-4.245-.015-6.78.96a1.53 1.53 0 0 0-.907 1.02C2.125 6.437 1.9 7.772 1.9 10c0 2.227.225 3.563.413 4.29a1.53 1.53 0 0 0 .907 1.02c2.535.975 6.608.96 6.78.96h.053c.517 0 4.32-.03 6.727-.96a1.531 1.531 0 0 0 .907-1.02c.188-.727.413-2.063.413-4.29 0-2.228-.225-3.563-.413-4.29Zm-.585 8.43a.9.9 0 0 1-.54.607c-2.43.938-6.518.923-6.563.923-.045 0-4.132.015-6.562-.922a.9.9 0 0 1-.54-.608c-.18-.697-.398-1.98-.398-4.14 0-2.16.218-3.443.398-4.14a.9.9 0 0 1 .54-.608C5.868 4.315 9.955 4.33 10 4.33c.045 0 4.133-.015 6.563.922a.9.9 0 0 1 .54.608c.18.697.397 1.98.397 4.14 0 2.16-.218 3.443-.398 4.14Z"/></symbol></svg>